<svg width="160" height="73" viewBox="0 0 160 73" fill="none" xmlns="http://www.w3.org/2000/svg">
<g clip-path="url(#clip0)">
<path d="M19.7328 29.2169L16.6816 31.0271V34.5356L19.7328 32.7347V29.2169Z" fill="#384772"/>
<path d="M13.6584 32.772V29.2449L16.6536 31.0085V34.5169L13.6584 32.772Z" fill="#85869A"/>
<path d="M16.6909 27.416L13.649 29.2449L16.6909 31.0271L19.7328 29.2449L16.6909 27.416Z" fill="#D2CBD3"/>
<path d="M21.3932 40.0336L18.0445 38.0522V41.801L21.3932 43.7823V40.0336Z" fill="#85869A"/>
<path d="M24.6675 38.0615L21.3839 40.015V43.8009L24.6675 41.8661V38.0615Z" fill="#384772"/>
<path d="M21.3467 36.0895L18.0537 38.043L21.3467 40.0057L24.6861 38.043L21.3467 36.0895Z" fill="#D2CBD3"/>
<path d="M27.2314 29.8751L24.1375 31.7184V35.2896L27.2314 33.4793V29.8751Z" fill="#384772"/>
<path d="M24.1357 31.7197L21.0019 29.8871V33.4547L24.1357 35.2764V31.7197Z" fill="#85869A"/>
<path d="M24.114 28.0221L21.0128 29.8871L24.114 31.7088L27.2369 29.8871L24.114 28.0221Z" fill="#D2CBD3"/>
<path d="M31.9348 26.5868L28.6225 24.6697V28.5553L31.892 30.4811L31.9348 26.5868Z" fill="#85869A"/>
<path d="M31.9091 26.5697V30.481L35.2641 28.5297V24.6183L31.9091 26.5697Z" fill="#384772"/>
<path d="M31.9433 22.6583L28.614 24.6355L31.9433 26.5954L35.247 24.6355L31.9433 22.6583Z" fill="#D2CBD3"/>
<path d="M37.5435 16.172L33.8786 18.3419L37.5195 20.4922L41.1758 18.3203L37.5435 16.172Z" fill="#D2CBD3"/>
<path d="M37.5317 20.4747L33.8855 18.3525V22.474L37.5317 24.6044V20.4747Z" fill="#85869A"/>
<path d="M37.5248 24.6115L38.591 23.9988V20.9753L41.1849 19.4476V18.3098L37.5248 20.474V24.6115Z" fill="#384772"/>
<path d="M43.64 17.9894L38.5981 20.9838L43.7061 23.9892L48.7371 20.9838L43.64 17.9894Z" fill="#D2CBD3"/>
<path d="M38.5955 21.0103V25.0931L41.0017 23.7021L43.7161 25.2586V23.9954L38.5955 21.0103Z" fill="#85869A"/>
<path d="M46.0346 27.7001V26.6707L43.7138 25.2782V23.9868L48.7599 21.0179V26.1238L48.0613 26.5328V27.7415L47.0135 27.1441L46.0346 27.7001Z" fill="#384772"/>
<path d="M40.7288 30.803L40.9597 30.9047V29.667L35.9162 26.7295V32.6598L36.7476 33.1493L40.7288 30.803Z" fill="#85869A"/>
<path d="M41.8397 30.2253V31.4209L40.9514 30.8954V29.6681L46.0618 26.6575V27.6834L41.8397 30.2253Z" fill="#384772"/>
<path d="M41.0023 23.6847L35.9188 26.7094L41.0023 29.6628L46.0291 26.6383L41.0023 23.6847Z" fill="#D2CBD3"/>
<path d="M35.6814 33.835L35.9471 33.6177L31.9982 31.287L26.8779 34.3181L31.9982 37.3613L35.6814 35.1996V33.835Z" fill="#D2CBD3"/>
<path d="M26.8779 40.3319V34.3784L32.0223 37.3491V43.3147L26.8779 40.3319Z" fill="#85869A"/>
<path d="M29.1741 50.4106V44.4297L34.2766 47.4032V53.3843L29.1741 50.4106Z" fill="#85869A"/>
<path d="M34.3146 53.4034V47.424L35.6584 46.6575V46.8107L36.7406 47.4781L35.6584 48.1726V52.6458L34.3146 53.4034Z" fill="#384772"/>
<path d="M31.4852 43.0387L29.1824 44.4126L34.3174 47.4362L35.6293 46.6479V42.2561L34.7172 41.7268L32.0033 43.3146L31.4852 43.0387Z" fill="#D2CBD3"/>
<path d="M35.6172 41.2031L32.0547 43.2773L32.0273 37.3555L35.6562 35.25L35.6797 39.707L36.7031 40.3125L35.6172 40.9648V41.2031Z" fill="#384772"/>
<path d="M40.7807 36.7644L45.8538 33.795L45.8683 39.7155L40.7807 42.6941V36.7644Z" fill="#345D73"/>
<path d="M46.9857 33.2153L52.1283 30.184L52.1675 36.062L47.0235 39.043L46.9857 33.2153Z" fill="#345D73"/>
<path d="M53.28 29.5522L58.3531 26.5828L58.3676 32.5032L53.28 35.4831V29.5522Z" fill="#345D73"/>
<path d="M40.8305 43.9191L45.905 40.9484L45.9181 46.8688L40.8305 49.8487V43.9191Z" fill="#345D73"/>
<path d="M47.088 40.3817L52.1612 37.411L52.1756 43.3328L47.088 46.3113V40.3817Z" fill="#345D73"/>
<path d="M53.28 36.6915L58.2753 33.7152V39.7555L53.28 42.6941V36.6915Z" fill="#345D73"/>
<path d="M40.8128 51.1473L45.9206 48.1541V54.2258L40.8128 57.1067L40.8128 51.1473Z" fill="#345D73"/>
<path d="M47.0198 47.5351L52.0943 44.5657L52.1074 50.4861L47.0198 53.4647V47.5351Z" fill="#345D73"/>
<path d="M53.2367 43.9191L58.3111 40.9484L58.3242 46.8688L53.2367 49.8487V43.9191Z" fill="#345D73"/>
<path d="M35.6656 33.8016L40.7807 36.7645V42.6941L35.68 39.7024L35.6656 33.8016Z" fill="#416F64"/>
<path d="M35.6419 40.9523L40.7558 43.9151V49.8447L35.6564 46.8517L35.6419 40.9523Z" fill="#416F64"/>
<path d="M35.6719 48.1758L40.7951 51.1995V57.1292L35.6944 54.1362L35.6719 48.1758Z" fill="#416F64"/>
<path d="M41.843 30.1974L46.9857 33.2153L46.9988 39.0794L45.8643 38.4157L45.8538 33.795L41.8417 31.4211L41.843 30.1974Z" fill="#416F64"/>
<path d="M48.1242 26.5919L53.2655 29.6085L53.28 35.4739L52.1454 34.8102L52.135 30.1882L48.1229 27.8143L48.1242 26.5919Z" fill="#416F64"/>
<path d="M52.1672 36.0852L53.2629 36.733L53.276 42.7282L52.2163 42.1445L52.1323 37.3127L51.0713 36.7028L52.1672 36.0852Z" fill="#416F64"/>
<path d="M45.8682 39.7155L46.9818 40.3385V46.2566L45.9616 45.7032V40.9591L44.9095 40.3398L45.8682 39.7155Z" fill="#416F64"/>
<path d="M52.1758 43.2812L53.255 43.9165L53.2344 49.8516L52.1231 49.1954V44.4962L51.1289 43.9165L52.1758 43.2812Z" fill="#416F64"/>
<path d="M45.9388 46.8869L46.9739 47.5219V53.4508L45.9388 52.8856V48.1541L44.9016 47.5232L45.9388 46.8869Z" fill="#416F64"/>
<path d="M35.6656 33.8016L40.7322 30.7903L45.8538 33.7951L40.7807 36.7645L35.6656 33.8016Z" fill="#6EB998"/>
<path d="M41.8901 30.1909L47.0231 27.145L52.1366 30.1452L46.984 33.2041L41.8901 30.1909Z" fill="#6EB998"/>
<path d="M48.1399 26.5538L53.2065 23.5425L58.3282 26.5473L53.2537 29.518L48.1399 26.5538Z" fill="#6EB998"/>
<path d="M35.6419 40.9523L40.8305 43.9191L45.905 40.9483L44.9095 40.3398L40.7807 42.694L36.7174 40.3109L35.6419 40.9523Z" fill="#6EB998"/>
<path d="M35.7141 48.1668L40.7702 51.1599L45.8945 48.1069L44.9003 47.4984L40.7702 49.8526L36.7681 47.4983L35.7141 48.1668Z" fill="#6EB998"/>
<path d="M45.8683 39.7154L47.088 40.3817L52.1612 37.411L51.0713 36.7028L46.9988 39.0793L45.8643 38.4157L45.8683 39.7154Z" fill="#6EB998"/>
<path d="M45.9753 46.8596L46.9988 47.5179L52.0483 44.5218L51.1156 43.8896L46.9988 46.3078L45.9753 45.7474L45.9753 46.8596Z" fill="#6EB998"/>
<path d="M52.1683 36.0535L53.2317 36.6979L58.2391 33.7076L57.2724 33.0953L53.2703 35.467L52.1683 34.8741L52.1683 36.0535Z" fill="#6EB998"/>
<path d="M52.185 43.2637L53.2459 43.886L58.2972 40.9023L57.3196 40.3057L53.2459 42.6809L52.185 42.1384L52.185 43.2637Z" fill="#6EB998"/>
<path d="M45.9352 54.2346L40.8095 57.1056L45.9352 54.2346Z" stroke="black" stroke-width="0.15" stroke-linecap="round" stroke-linejoin="round"/>
<path d="M45.9352 48.1213V54.2346" stroke="black" stroke-width="0.15" stroke-linecap="round" stroke-linejoin="round"/>
<path d="M40.8095 51.1471L45.9352 48.1213" stroke="black" stroke-width="0.15" stroke-linecap="round" stroke-linejoin="round"/>
<path d="M46.9766 47.5127L52.0864 44.4974" stroke="black" stroke-width="0.15" stroke-linecap="round" stroke-linejoin="round"/>
<path d="M53.2406 49.8631L58.3466 46.8452" stroke="black" stroke-width="0.15" stroke-linecap="round" stroke-linejoin="round"/>
<path d="M53.2406 43.8954L58.3203 40.8998" stroke="black" stroke-width="0.15" stroke-linecap="round" stroke-linejoin="round"/>
<path d="M53.2406 42.7452L58.2967 39.7627" stroke="black" stroke-width="0.15" stroke-linecap="round" stroke-linejoin="round"/>
<path d="M46.9975 53.4712L52.1127 50.4402" stroke="black" stroke-width="0.15" stroke-linecap="round" stroke-linejoin="round"/>
<path d="M47.0264 46.3113L52.1874 43.2764" stroke="black" stroke-width="0.15" stroke-linecap="round" stroke-linejoin="round"/>
<path d="M40.7938 43.9663L45.926 40.9365" stroke="black" stroke-width="0.15" stroke-linecap="round" stroke-linejoin="round"/>
<path d="M47.0185 40.3752L52.152 37.3441" stroke="black" stroke-width="0.15" stroke-linecap="round" stroke-linejoin="round"/>
<path d="M53.2406 36.6845L58.2718 33.7151" stroke="black" stroke-width="0.15" stroke-linecap="round" stroke-linejoin="round"/>
<path d="M53.2787 35.4831L58.3689 32.4534" stroke="black" stroke-width="0.15" stroke-linecap="round" stroke-linejoin="round"/>
<path d="M53.2577 29.5627L58.357 26.5526" stroke="black" stroke-width="0.15" stroke-linecap="round" stroke-linejoin="round"/>
<path d="M46.9988 39.0794L52.1756 36.0588" stroke="black" stroke-width="0.15" stroke-linecap="round" stroke-linejoin="round"/>
<path d="M46.9857 33.2154L52.1366 30.184" stroke="black" stroke-width="0.15" stroke-linecap="round" stroke-linejoin="round"/>
<path d="M40.7807 42.6954L45.8683 39.7155" stroke="black" stroke-width="0.15" stroke-linecap="round" stroke-linejoin="round"/>
<path d="M40.7807 36.7986L45.8565 33.8016" stroke="black" stroke-width="0.15" stroke-linecap="round" stroke-linejoin="round"/>
<path d="M35.6656 33.8016L40.7322 30.7903" stroke="black" stroke-width="0.15" stroke-linecap="round" stroke-linejoin="round"/>
<path d="M35.6432 40.9444L36.7174 40.3109" stroke="black" stroke-width="0.15" stroke-linecap="round" stroke-linejoin="round"/>
<path d="M35.6577 48.1462L36.7699 47.4891" stroke="black" stroke-width="0.15" stroke-linecap="round" stroke-linejoin="round"/>
<path d="M34.3107 53.4253L35.6629 52.6266" stroke="black" stroke-width="0.15" stroke-linecap="round" stroke-linejoin="round"/>
<path d="M21.3812 43.8051L24.689 41.8547" stroke="black" stroke-width="0.15" stroke-linecap="round" stroke-linejoin="round"/>
<path d="M21.3812 40.0107L24.689 38.0577" stroke="black" stroke-width="0.15" stroke-linecap="round" stroke-linejoin="round"/>
<path d="M19.7523 32.7196L16.674 34.5374" stroke="black" stroke-width="0.15" stroke-linecap="round" stroke-linejoin="round"/>
<path d="M16.6937 31.0211L19.747 29.2177" stroke="black" stroke-width="0.15" stroke-linecap="round" stroke-linejoin="round"/>
<path d="M13.6338 29.2255L16.6871 27.4221" stroke="black" stroke-width="0.15" stroke-linecap="round" stroke-linejoin="round"/>
<path d="M20.9996 29.8614L24.1146 28.0226" stroke="black" stroke-width="0.15" stroke-linecap="round" stroke-linejoin="round"/>
<path d="M28.608 24.6285L31.9433 22.6598" stroke="black" stroke-width="0.15" stroke-linecap="round" stroke-linejoin="round"/>
<path d="M31.9289 26.5776L35.2642 24.6089" stroke="black" stroke-width="0.15" stroke-linecap="round" stroke-linejoin="round"/>
<path d="M37.5201 24.6311L38.5681 23.9858" stroke="black" stroke-width="0.15" stroke-linecap="round" stroke-linejoin="round"/>
<path d="M37.5254 20.4761L41.1912 18.312" stroke="black" stroke-width="0.15" stroke-linecap="round" stroke-linejoin="round"/>
<path d="M33.8831 18.3395L37.5476 16.1754" stroke="black" stroke-width="0.15" stroke-linecap="round" stroke-linejoin="round"/>
<path d="M31.9105 30.507L35.2799 28.5121" stroke="black" stroke-width="0.15" stroke-linecap="round" stroke-linejoin="round"/>
<path d="M24.1368 31.7015L27.244 29.8574" stroke="black" stroke-width="0.15" stroke-linecap="round" stroke-linejoin="round"/>
<path d="M24.1368 35.3043L27.244 33.4825" stroke="black" stroke-width="0.15" stroke-linecap="round" stroke-linejoin="round"/>
<path d="M18.0367 38.0471L21.3485 36.0981" stroke="black" stroke-width="0.15" stroke-linecap="round" stroke-linejoin="round"/>
<path d="M34.3107 47.4302L35.638 46.6459" stroke="black" stroke-width="0.15" stroke-linecap="round" stroke-linejoin="round"/>
<path d="M32.0089 43.3302L35.5895 41.2159" stroke="black" stroke-width="0.15" stroke-linecap="round" stroke-linejoin="round"/>
<path d="M32.0089 37.3586L35.6669 35.1985" stroke="black" stroke-width="0.15" stroke-linecap="round" stroke-linejoin="round"/>
<path d="M26.8531 34.3249L31.9931 31.2899" stroke="black" stroke-width="0.15" stroke-linecap="round" stroke-linejoin="round"/>
<path d="M29.1615 44.4083L31.4961 43.0286" stroke="black" stroke-width="0.15" stroke-linecap="round" stroke-linejoin="round"/>
<path d="M41.843 30.1974L47.0264 27.1375" stroke="black" stroke-width="0.15" stroke-linecap="round" stroke-linejoin="round"/>
<path d="M40.9604 29.6597L46.0545 26.6522" stroke="black" stroke-width="0.15" stroke-linecap="round" stroke-linejoin="round"/>
<path d="M35.9056 26.6929L40.9997 23.6854" stroke="black" stroke-width="0.15" stroke-linecap="round" stroke-linejoin="round"/>
<path d="M38.5838 20.9785L43.6373 17.9946" stroke="black" stroke-width="0.15" stroke-linecap="round" stroke-linejoin="round"/>
<path d="M43.7081 23.9858L48.7616 21.002" stroke="black" stroke-width="0.15" stroke-linecap="round" stroke-linejoin="round"/>
<path d="M48.0901 26.5303L53.1921 23.5176" stroke="black" stroke-width="0.15" stroke-linecap="round" stroke-linejoin="round"/>
<path d="M40.7938 49.85L45.9548 46.8859" stroke="black" stroke-width="0.15" stroke-linecap="round" stroke-linejoin="round"/>
<path d="M40.8095 57.0781L40.7938 51.1471" stroke="black" stroke-width="0.15" stroke-linecap="round" stroke-linejoin="round"/>
<path d="M35.6669 54.0876L40.8095 57.1056" stroke="black" stroke-width="0.15" stroke-linecap="round" stroke-linejoin="round"/>
<path d="M40.7938 49.8499V43.9675" stroke="black" stroke-width="0.15" stroke-linecap="round" stroke-linejoin="round"/>
<path d="M40.7938 42.6364V36.7971" stroke="black" stroke-width="0.15" stroke-linecap="round" stroke-linejoin="round"/>
<path d="M35.6577 48.1462L40.8095 51.1681" stroke="black" stroke-width="0.15" stroke-linecap="round" stroke-linejoin="round"/>
<path d="M40.7938 49.85L35.6446 46.8281" stroke="black" stroke-width="0.15" stroke-linecap="round" stroke-linejoin="round"/>
<path d="M35.6432 40.9445L40.7938 43.9676" stroke="black" stroke-width="0.15" stroke-linecap="round" stroke-linejoin="round"/>
<path d="M35.68 39.701L40.7807 42.6954" stroke="black" stroke-width="0.15" stroke-linecap="round" stroke-linejoin="round"/>
<path d="M35.6656 33.7977L40.7807 36.7986" stroke="black" stroke-width="0.15" stroke-linecap="round" stroke-linejoin="round"/>
<path d="M40.7321 30.7903L45.8617 33.8016" stroke="black" stroke-width="0.15" stroke-linecap="round" stroke-linejoin="round"/>
<path d="M41.843 30.1974L46.9857 33.2153" stroke="black" stroke-width="0.15" stroke-linecap="round" stroke-linejoin="round"/>
<path d="M47.0264 27.1375L52.1366 30.1367" stroke="black" stroke-width="0.15" stroke-linecap="round" stroke-linejoin="round"/>
<path d="M48.0901 26.5303L53.2576 29.5626" stroke="black" stroke-width="0.15" stroke-linecap="round" stroke-linejoin="round"/>
<path d="M53.1921 23.5176L58.357 26.5486" stroke="black" stroke-width="0.15" stroke-linecap="round" stroke-linejoin="round"/>
<path d="M26.8531 34.325L32.0089 37.3507" stroke="black" stroke-width="0.15" stroke-linecap="round" stroke-linejoin="round"/>
<path d="M26.8531 40.3044L32.0089 43.3302" stroke="black" stroke-width="0.15" stroke-linecap="round" stroke-linejoin="round"/>
<path d="M31.9932 31.2899L35.9672 33.6232" stroke="black" stroke-width="0.15" stroke-linecap="round" stroke-linejoin="round"/>
<path d="M35.9056 26.6929L40.9604 29.6596" stroke="black" stroke-width="0.15" stroke-linecap="round" stroke-linejoin="round"/>
<path d="M40.9997 23.6854L46.0545 26.6522" stroke="black" stroke-width="0.15" stroke-linecap="round" stroke-linejoin="round"/>
<path d="M38.5838 20.9784L43.7081 23.9858" stroke="black" stroke-width="0.15" stroke-linecap="round" stroke-linejoin="round"/>
<path d="M43.6373 17.9946L48.7616 21.0021" stroke="black" stroke-width="0.15" stroke-linecap="round" stroke-linejoin="round"/>
<path d="M29.1615 44.4083L34.3107 47.4302" stroke="black" stroke-width="0.15" stroke-linecap="round" stroke-linejoin="round"/>
<path d="M29.1549 50.3995L34.3107 53.4253" stroke="black" stroke-width="0.15" stroke-linecap="round" stroke-linejoin="round"/>
<path d="M34.7553 41.7432L35.6341 42.2586" stroke="black" stroke-width="0.15" stroke-linecap="round" stroke-linejoin="round"/>
<path d="M28.608 24.6284L31.9289 26.5774" stroke="black" stroke-width="0.15" stroke-linecap="round" stroke-linejoin="round"/>
<path d="M35.9121 32.65L36.762 33.151" stroke="black" stroke-width="0.15" stroke-linecap="round" stroke-linejoin="round"/>
<path d="M28.6093 28.5724L31.9105 30.507" stroke="black" stroke-width="0.15" stroke-linecap="round" stroke-linejoin="round"/>
<path d="M31.9433 22.6598L35.2642 24.6088" stroke="black" stroke-width="0.15" stroke-linecap="round" stroke-linejoin="round"/>
<path d="M33.8831 18.3395L37.5254 20.476" stroke="black" stroke-width="0.15" stroke-linecap="round" stroke-linejoin="round"/>
<path d="M33.8857 22.4985L37.5201 24.6311" stroke="black" stroke-width="0.15" stroke-linecap="round" stroke-linejoin="round"/>
<path d="M37.5477 16.1754L41.1886 18.3133" stroke="black" stroke-width="0.15" stroke-linecap="round" stroke-linejoin="round"/>
<path d="M18.0367 38.0471L21.3812 40.0105" stroke="black" stroke-width="0.15" stroke-linecap="round" stroke-linejoin="round"/>
<path d="M21.3484 36.0981L24.689 38.0576" stroke="black" stroke-width="0.15" stroke-linecap="round" stroke-linejoin="round"/>
<path d="M18.0197 41.8324L21.3812 43.805" stroke="black" stroke-width="0.15" stroke-linecap="round" stroke-linejoin="round"/>
<path d="M21.0009 33.4603L24.1368 35.3005" stroke="black" stroke-width="0.15" stroke-linecap="round" stroke-linejoin="round"/>
<path d="M13.6312 32.7511L16.674 34.5375" stroke="black" stroke-width="0.15" stroke-linecap="round" stroke-linejoin="round"/>
<path d="M13.6338 29.2256L16.6937 31.0211" stroke="black" stroke-width="0.15" stroke-linecap="round" stroke-linejoin="round"/>
<path d="M16.6871 27.4221L19.747 29.2177" stroke="black" stroke-width="0.15" stroke-linecap="round" stroke-linejoin="round"/>
<path d="M20.9996 29.8613L24.1368 31.7015" stroke="black" stroke-width="0.15" stroke-linecap="round" stroke-linejoin="round"/>
<path d="M24.1146 28.0226L27.244 29.8575" stroke="black" stroke-width="0.15" stroke-linecap="round" stroke-linejoin="round"/>
<path d="M47.0185 40.3752L45.8683 39.6919" stroke="black" stroke-width="0.15" stroke-linecap="round" stroke-linejoin="round"/>
<path d="M45.8643 38.4158L46.9988 39.0794" stroke="black" stroke-width="0.15" stroke-linecap="round" stroke-linejoin="round"/>
<path d="M51.0713 36.7028L52.152 37.3441" stroke="black" stroke-width="0.15" stroke-linecap="round" stroke-linejoin="round"/>
<path d="M52.173 34.8666L53.2786 35.483" stroke="black" stroke-width="0.15" stroke-linecap="round" stroke-linejoin="round"/>
<path d="M52.1756 36.0588L53.2406 36.6845" stroke="black" stroke-width="0.15" stroke-linecap="round" stroke-linejoin="round"/>
<path d="M57.4376 40.3817L58.3203 40.8998" stroke="black" stroke-width="0.15" stroke-linecap="round" stroke-linejoin="round"/>
<path d="M52.1874 43.2764L53.2406 43.8954" stroke="black" stroke-width="0.15" stroke-linecap="round" stroke-linejoin="round"/>
<path d="M52.1127 49.2008L53.2406 49.8632" stroke="black" stroke-width="0.15" stroke-linecap="round" stroke-linejoin="round"/>
<path d="M51.1041 43.9164L52.093 44.4974" stroke="black" stroke-width="0.15" stroke-linecap="round" stroke-linejoin="round"/>
<path d="M52.2163 42.1445L53.2406 42.7452" stroke="black" stroke-width="0.15" stroke-linecap="round" stroke-linejoin="round"/>
<path d="M46.9766 47.5128L45.9548 46.8859" stroke="black" stroke-width="0.15" stroke-linecap="round" stroke-linejoin="round"/>
<path d="M45.9351 48.1213L44.878 47.5049" stroke="black" stroke-width="0.15" stroke-linecap="round" stroke-linejoin="round"/>
<path d="M45.9785 45.7185L47.0264 46.3113" stroke="black" stroke-width="0.15" stroke-linecap="round" stroke-linejoin="round"/>
<path d="M45.926 40.9366L44.9095 40.3398" stroke="black" stroke-width="0.15" stroke-linecap="round" stroke-linejoin="round"/>
<path d="M45.9352 52.881L46.9975 53.4712" stroke="black" stroke-width="0.15" stroke-linecap="round" stroke-linejoin="round"/>
<path d="M57.3524 33.1747L58.2718 33.715" stroke="black" stroke-width="0.15" stroke-linecap="round" stroke-linejoin="round"/>
<path d="M34.3107 53.3795V47.4197" stroke="black" stroke-width="0.15" stroke-linecap="round" stroke-linejoin="round"/>
<path d="M29.1549 50.3995V44.441" stroke="black" stroke-width="0.15" stroke-linecap="round" stroke-linejoin="round"/>
<path d="M32.0299 43.2895V37.3311" stroke="black" stroke-width="0.15" stroke-linecap="round" stroke-linejoin="round"/>
<path d="M26.8531 40.311V34.3512" stroke="black" stroke-width="0.15" stroke-linecap="round" stroke-linejoin="round"/>
<path d="M35.6669 54.0876L35.6577 48.1462" stroke="black" stroke-width="0.15" stroke-linecap="round" stroke-linejoin="round"/>
<path d="M35.68 39.7011L35.6656 33.8016" stroke="black" stroke-width="0.15" stroke-linecap="round" stroke-linejoin="round"/>
<path d="M45.8538 33.795L45.8683 39.7155L45.8538 33.795Z" stroke="black" stroke-width="0.15" stroke-linecap="round" stroke-linejoin="round"/>
<path d="M46.9857 33.2153L46.9988 39.0794" stroke="black" stroke-width="0.15" stroke-linecap="round" stroke-linejoin="round"/>
<path d="M52.1756 36.0589L52.1612 30.1555" stroke="black" stroke-width="0.15" stroke-linecap="round" stroke-linejoin="round"/>
<path d="M53.2787 35.4791L53.2642 29.5416" stroke="black" stroke-width="0.15" stroke-linecap="round" stroke-linejoin="round"/>
<path d="M58.3689 32.4534L58.3544 26.5487" stroke="black" stroke-width="0.15" stroke-linecap="round" stroke-linejoin="round"/>
<path d="M58.2967 39.7627L58.2823 33.7347" stroke="black" stroke-width="0.15" stroke-linecap="round" stroke-linejoin="round"/>
<path d="M53.2485 42.7413L53.234 36.6779" stroke="black" stroke-width="0.15" stroke-linecap="round" stroke-linejoin="round"/>
<path d="M47.0264 46.3114L47.012 40.3739" stroke="black" stroke-width="0.15" stroke-linecap="round" stroke-linejoin="round"/>
<path d="M52.1651 43.2816L52.152 37.3441" stroke="black" stroke-width="0.15" stroke-linecap="round" stroke-linejoin="round"/>
<path d="M45.9548 46.8858L45.9417 40.9484" stroke="black" stroke-width="0.15" stroke-linecap="round" stroke-linejoin="round"/>
<path d="M35.6446 46.8282L35.6315 40.9445" stroke="black" stroke-width="0.15" stroke-linecap="round" stroke-linejoin="round"/>
<path d="M46.9975 53.4713L46.9831 47.4971" stroke="black" stroke-width="0.15" stroke-linecap="round" stroke-linejoin="round"/>
<path d="M52.1127 50.4402L52.0982 44.5184" stroke="black" stroke-width="0.15" stroke-linecap="round" stroke-linejoin="round"/>
<path d="M53.2485 49.8159L53.234 43.8784" stroke="black" stroke-width="0.15" stroke-linecap="round" stroke-linejoin="round"/>
<path d="M58.3466 46.8452L58.3334 40.9077" stroke="black" stroke-width="0.15" stroke-linecap="round" stroke-linejoin="round"/>
<path d="M41.843 31.4211L41.8391 30.1974" stroke="black" stroke-width="0.15" stroke-linecap="round" stroke-linejoin="round"/>
<path d="M48.0914 27.7461L48.0901 26.5303" stroke="black" stroke-width="0.15" stroke-linecap="round" stroke-linejoin="round"/>
<path d="M35.9121 32.6501L35.899 26.7126" stroke="black" stroke-width="0.15" stroke-linecap="round" stroke-linejoin="round"/>
<path d="M40.9669 30.9135L40.9643 29.6807" stroke="black" stroke-width="0.15" stroke-linecap="round" stroke-linejoin="round"/>
<path d="M43.7094 25.2174L43.7068 23.9858" stroke="black" stroke-width="0.15" stroke-linecap="round" stroke-linejoin="round"/>
<path d="M46.0637 27.7054L46.0611 26.6522" stroke="black" stroke-width="0.15" stroke-linecap="round" stroke-linejoin="round"/>
<path d="M48.7616 26.1276V21.002" stroke="black" stroke-width="0.15" stroke-linecap="round" stroke-linejoin="round"/>
<path d="M38.593 25.0639L38.5838 20.9784" stroke="black" stroke-width="0.15" stroke-linecap="round" stroke-linejoin="round"/>
<path d="M37.5201 24.6311V20.5062" stroke="black" stroke-width="0.15" stroke-linecap="round" stroke-linejoin="round"/>
<path d="M41.2004 19.394V18.3264" stroke="black" stroke-width="0.15" stroke-linecap="round" stroke-linejoin="round"/>
<path d="M33.8857 22.4985L33.8831 18.3395" stroke="black" stroke-width="0.15" stroke-linecap="round" stroke-linejoin="round"/>
<path d="M35.28 28.5121L35.2773 24.6167" stroke="black" stroke-width="0.15" stroke-linecap="round" stroke-linejoin="round"/>
<path d="M31.9105 30.5069L31.9145 26.5643" stroke="black" stroke-width="0.15" stroke-linecap="round" stroke-linejoin="round"/>
<path d="M28.6093 28.5723L28.608 24.6298" stroke="black" stroke-width="0.15" stroke-linecap="round" stroke-linejoin="round"/>
<path d="M27.244 33.4826L27.2426 29.8837" stroke="black" stroke-width="0.15" stroke-linecap="round" stroke-linejoin="round"/>
<path d="M24.1368 35.3044L24.1355 31.7054" stroke="black" stroke-width="0.15" stroke-linecap="round" stroke-linejoin="round"/>
<path d="M21.0009 33.4603L20.9996 29.8837" stroke="black" stroke-width="0.15" stroke-linecap="round" stroke-linejoin="round"/>
<path d="M19.7523 32.7196V29.2308" stroke="black" stroke-width="0.15" stroke-linecap="round" stroke-linejoin="round"/>
<path d="M16.674 34.5178V31.0277" stroke="black" stroke-width="0.15" stroke-linecap="round" stroke-linejoin="round"/>
<path d="M13.6312 32.7301V29.24" stroke="black" stroke-width="0.15" stroke-linecap="round" stroke-linejoin="round"/>
<path d="M18.0197 41.8324V38.0695" stroke="black" stroke-width="0.15" stroke-linecap="round" stroke-linejoin="round"/>
<path d="M21.3812 43.7801V40.0159" stroke="black" stroke-width="0.15" stroke-linecap="round" stroke-linejoin="round"/>
<path d="M24.689 41.8547V38.0905" stroke="black" stroke-width="0.15" stroke-linecap="round" stroke-linejoin="round"/>
</g>
<path d="M93.152 41.6407H95.808L91.328 30.6487H88.688L84.208 41.6407H86.848L87.552 39.9127H92.448L93.152 41.6407ZM88.368 37.9127L90 33.8967L91.632 37.9127H88.368Z" fill="#444444"/>
<path d="M103.184 33.3686V34.4886C102.624 33.7046 101.568 33.1766 100.448 33.1766C98.3676 33.1766 96.7836 34.7926 96.7836 37.0966C96.7836 39.4006 98.3676 41.0326 100.448 41.0326C101.536 41.0326 102.528 40.5526 103.184 39.7526V40.6646C103.184 41.7366 102.224 42.4246 100.72 42.4246C99.7596 42.4246 98.7996 42.1206 98.2556 41.6406L97.4396 43.2886C98.2556 43.9286 99.6316 44.3926 101.088 44.3926C103.696 44.3926 105.536 42.8886 105.536 40.7606V33.3686H103.184ZM101.184 39.0646C100.016 39.0646 99.1836 38.2486 99.1836 37.0966C99.1836 35.9446 100.016 35.1446 101.184 35.1446C102.352 35.1446 103.184 35.9446 103.184 37.0966C103.184 38.2486 102.352 39.0646 101.184 39.0646Z" fill="#444444"/>
<path d="M110.086 34.9046V33.3686H107.75V41.6406H110.086V37.6886C110.086 36.1366 111.19 35.1446 112.918 35.1446V33.1766C111.654 33.1766 110.63 33.8326 110.086 34.9046Z" fill="#444444"/>
<path d="M115.594 32.2326C116.282 32.2326 116.842 31.6566 116.842 30.9526C116.842 30.2966 116.282 29.7046 115.594 29.7046C114.874 29.7046 114.314 30.2966 114.314 30.9526C114.314 31.6566 114.874 32.2326 115.594 32.2326ZM114.41 41.6406H116.746V33.3686H114.41V41.6406Z" fill="#444444"/>
<path d="M124.385 41.8327C125.905 41.8327 127.313 41.1767 128.337 40.1527L127.633 39.4327C126.801 40.3127 125.633 40.8727 124.385 40.8727C121.889 40.8727 119.793 38.7127 119.793 36.1367C119.793 33.5767 121.889 31.4167 124.385 31.4167C125.633 31.4167 126.801 31.9767 127.633 32.8407L128.337 32.1367C127.313 31.0967 125.905 30.4567 124.385 30.4567C121.345 30.4567 118.753 33.0487 118.753 36.1367C118.753 39.2247 121.345 41.8327 124.385 41.8327Z" fill="#444444"/>
<path d="M133.9 33.1767C132.684 33.1767 131.628 33.8167 131.18 34.7287V30.4567H130.188V41.6407H131.18V36.3767C131.18 35.0967 132.316 34.0887 133.772 34.0887C135.084 34.0887 136.012 35.0647 136.012 36.4567V41.6407H137.004V36.3287C137.004 34.4887 135.724 33.1767 133.9 33.1767Z" fill="#444444"/>
<path d="M142.91 33.1766C142.094 33.1766 141.07 33.4006 139.982 33.9766L140.382 34.7926C141.134 34.3766 141.998 34.0566 142.83 34.0566C144.686 34.0566 145.23 35.3846 145.23 36.6006V36.9366C144.35 36.6486 143.358 36.4406 142.462 36.4406C140.606 36.4406 139.182 37.5606 139.182 39.1926C139.182 40.7926 140.462 41.8326 142.19 41.8326C143.31 41.8326 144.622 41.3046 145.23 40.3286V41.6406H146.222V36.6006C146.222 34.6006 145.086 33.1766 142.91 33.1766ZM142.35 40.9366C141.118 40.9366 140.158 40.2486 140.158 39.1446C140.158 38.0726 141.23 37.3046 142.606 37.3046C143.534 37.3046 144.446 37.4806 145.23 37.7206V39.0486C144.91 40.3286 143.502 40.9366 142.35 40.9366Z" fill="#444444"/>
<path d="M149.316 31.7526C149.7 31.7526 150.004 31.4486 150.004 31.0646C150.004 30.6966 149.7 30.3766 149.316 30.3766C148.932 30.3766 148.628 30.6966 148.628 31.0646C148.628 31.4486 148.932 31.7526 149.316 31.7526ZM148.82 41.6406H149.812V33.3686H148.82V41.6406Z" fill="#444444"/>
<path d="M156.115 33.1766C154.899 33.1766 153.843 33.8166 153.395 34.7286V33.3686H152.403V41.6406H153.395V36.3766C153.395 35.0966 154.531 34.0886 155.987 34.0886C157.299 34.0886 158.227 35.0646 158.227 36.4566V41.6406H159.219V36.3286C159.219 34.4886 157.939 33.1766 156.115 33.1766Z" fill="#444444"/>
<defs>
<clipPath id="clip0">
<rect width="45" height="41.1925" fill="white" transform="translate(13.5 16.0443)"/>
</clipPath>
</defs>
</svg>
