<svg width="150" height="35" viewBox="0 0 150 35" fill="none" xmlns="http://www.w3.org/2000/svg">
<path d="M70.152 23H72.808L68.328 12.008H65.688L61.208 23H63.848L64.552 21.272H69.448L70.152 23ZM65.368 19.272L67 15.256L68.632 19.272H65.368ZM80.1836 14.728V15.848C79.6236 15.064 78.5676 14.536 77.4476 14.536C75.3676 14.536 73.7836 16.152 73.7836 18.456C73.7836 20.76 75.3676 22.392 77.4476 22.392C78.5356 22.392 79.5276 21.912 80.1836 21.112V22.024C80.1836 23.096 79.2236 23.784 77.7196 23.784C76.7596 23.784 75.7996 23.48 75.2556 23L74.4396 24.648C75.2556 25.288 76.6316 25.752 78.0876 25.752C80.6956 25.752 82.5356 24.248 82.5356 22.12V14.728H80.1836ZM78.1836 20.424C77.0156 20.424 76.1836 19.608 76.1836 18.456C76.1836 17.304 77.0156 16.504 78.1836 16.504C79.3516 16.504 80.1836 17.304 80.1836 18.456C80.1836 19.608 79.3516 20.424 78.1836 20.424ZM87.0862 16.264V14.728H84.7502V23H87.0862V19.048C87.0862 17.496 88.1902 16.504 89.9183 16.504V14.536C88.6543 14.536 87.6302 15.192 87.0862 16.264ZM92.5939 13.592C93.2819 13.592 93.8419 13.016 93.8419 12.312C93.8419 11.656 93.2819 11.064 92.5939 11.064C91.8739 11.064 91.3139 11.656 91.3139 12.312C91.3139 13.016 91.8739 13.592 92.5939 13.592ZM91.4099 23H93.7459V14.728H91.4099V23ZM101.385 23.192C102.905 23.192 104.313 22.536 105.337 21.512L104.633 20.792C103.801 21.672 102.633 22.232 101.385 22.232C98.8892 22.232 96.7932 20.072 96.7932 17.496C96.7932 14.936 98.8892 12.776 101.385 12.776C102.633 12.776 103.801 13.336 104.633 14.2L105.337 13.496C104.313 12.456 102.905 11.816 101.385 11.816C98.3452 11.816 95.7532 14.408 95.7532 17.496C95.7532 20.584 98.3452 23.192 101.385 23.192ZM110.9 14.536C109.684 14.536 108.628 15.176 108.18 16.088V11.816H107.188V23H108.18V17.736C108.18 16.456 109.316 15.448 110.772 15.448C112.084 15.448 113.012 16.424 113.012 17.816V23H114.004V17.688C114.004 15.848 112.724 14.536 110.9 14.536ZM119.91 14.536C119.094 14.536 118.07 14.76 116.982 15.336L117.382 16.152C118.134 15.736 118.998 15.416 119.83 15.416C121.686 15.416 122.23 16.744 122.23 17.96V18.296C121.35 18.008 120.358 17.8 119.462 17.8C117.606 17.8 116.182 18.92 116.182 20.552C116.182 22.152 117.462 23.192 119.19 23.192C120.31 23.192 121.622 22.664 122.23 21.688V23H123.222V17.96C123.222 15.96 122.086 14.536 119.91 14.536ZM119.35 22.296C118.118 22.296 117.158 21.608 117.158 20.504C117.158 19.432 118.23 18.664 119.606 18.664C120.534 18.664 121.446 18.84 122.23 19.08V20.408C121.91 21.688 120.502 22.296 119.35 22.296ZM126.316 13.112C126.7 13.112 127.004 12.808 127.004 12.424C127.004 12.056 126.7 11.736 126.316 11.736C125.932 11.736 125.628 12.056 125.628 12.424C125.628 12.808 125.932 13.112 126.316 13.112ZM125.82 23H126.812V14.728H125.82V23ZM133.115 14.536C131.899 14.536 130.843 15.176 130.395 16.088V14.728H129.403V23H130.395V17.736C130.395 16.456 131.531 15.448 132.987 15.448C134.299 15.448 135.227 16.424 135.227 17.816V23H136.219V17.688C136.219 15.848 134.939 14.536 133.115 14.536Z" fill="#737373"/>
<path d="M17.5683 9.14828L12.8637 11.7965L8.15918 9.14828L12.8637 6.29639L17.5683 9.14828Z" fill="#D2CBD3" stroke="black" stroke-width="0.1"/>
<path d="M12.8635 17.0925L8.15894 14.4443V9.14795L12.8635 11.7961V17.0925Z" fill="#85869A" stroke="black" stroke-width="0.1"/>
<path d="M17.5683 14.4443L12.8638 17.0925V11.7961L17.5683 9.14795V14.4443Z" fill="#384772" stroke="black" stroke-width="0.1"/>
<path d="M20.0225 16.278V21.1669L15.7271 18.7225V13.8335L20.0225 16.278Z" fill="#85869A" stroke="black" stroke-width="0.1"/>
<path d="M20.0229 16.278V21.1669L24.3184 18.7225V13.8335L20.0229 16.278Z" fill="#384772" stroke="black" stroke-width="0.1"/>
<path d="M15.7271 13.8332L20.0225 16.2776L24.318 13.8332L20.0225 11.3887L15.7271 13.8332Z" fill="#D2CBD3" stroke="black" stroke-width="0.1"/>
<path d="M17.3638 2.62965L20.2274 1L23.091 2.62965L20.2274 4.25931L17.3638 2.62965Z" fill="#D2CBD3" stroke="black" stroke-width="0.1"/>
<path d="M23.0909 2.62939L20.2273 4.25905V7.72207L23.0909 6.09241V2.62939Z" fill="#384772" stroke="black" stroke-width="0.1"/>
<path d="M20.2272 4.25905L17.3635 2.62939V6.09241L20.2272 7.72207V4.25905Z" fill="#85869A" stroke="black" stroke-width="0.1"/>
<path d="M7.13623 20.1482V23.2038L9.99987 21.5742V18.5186L7.13623 20.1482Z" fill="#384772" stroke="black" stroke-width="0.1"/>
<path d="M4.47729 18.5183L7.13639 20.148L10 18.5183L7.13639 16.8887L4.47729 18.5183Z" fill="#D2CBD3" stroke="black" stroke-width="0.1"/>
<path d="M7.13639 20.1482V23.2038L4.47729 21.5742V18.5186L7.13639 20.1482Z" fill="#85869A" stroke="black" stroke-width="0.1"/>
<path d="M10 16.8894L12.6591 18.5191L15.5227 16.8894L12.6591 15.2598L10 16.8894Z" fill="#D2CBD3" stroke="black" stroke-width="0.1"/>
<path d="M12.6592 18.5183V21.5739L15.5228 19.9443V16.8887L12.6592 18.5183Z" fill="#384772" stroke="black" stroke-width="0.1"/>
<path d="M12.6591 18.5183V21.5739L10 19.9443V16.8887L12.6591 18.5183Z" fill="#85869A" stroke="black" stroke-width="0.1"/>
<path d="M12.0453 8.74072L9.38623 10.1667V13.2223L12.0453 11.5926V8.74072Z" fill="#384772" stroke="black" stroke-width="0.1"/>
<path d="M9.38643 10.1668L6.93188 8.74089L9.38643 7.31494L12.0455 8.74089L9.38643 10.1668Z" fill="#D2CBD3" stroke="black" stroke-width="0.1"/>
<path d="M9.38643 10.1667L6.93188 8.74072V11.5926L9.38643 13.2223V10.1667Z" fill="#85869A" stroke="black" stroke-width="0.1"/>
<path d="M29.4317 4.87012L25.3408 7.3146V12.2036L29.4317 9.55537V4.87012Z" fill="#384772" stroke="black" stroke-width="0.1"/>
<path d="M25.3409 7.3146L21.25 4.87012V9.55537L25.3409 12.2036V7.3146Z" fill="#85869A" stroke="black" stroke-width="0.1"/>
<path d="M29.4318 4.87026L25.3409 7.31475L21.25 4.87026L25.3409 2.42578L29.4318 4.87026Z" fill="#D2CBD3" stroke="black" stroke-width="0.1"/>
<path d="M17.7725 30.7406V26.0553L13.4771 23.6108V28.2961L17.7725 30.7406Z" fill="#85869A" stroke="black" stroke-width="0.1"/>
<path d="M17.7729 30.7406V26.0553L22.4775 23.6108V28.2961L17.7729 30.7406Z" fill="#384772" stroke="black" stroke-width="0.1"/>
<path d="M17.7725 26.056L13.4771 23.6115L17.7725 21.167L22.4771 23.6115L17.7725 26.056Z" fill="#D2CBD3" stroke="black" stroke-width="0.1"/>
<path d="M36.9996 20.9639L32.7041 23.4083V28.2973L36.9996 25.6491V20.9639Z" fill="#345D73" stroke="black" stroke-width="0.1"/>
<path d="M37.0001 20.963L32.7046 23.4075L28.4092 20.963L32.7046 18.5186L37.0001 20.963Z" fill="#6EB998" stroke="black" stroke-width="0.1"/>
<path d="M32.7044 23.4083V28.2973L28.4089 25.6491V20.9639L32.7044 23.4083Z" fill="#416F64" stroke="black" stroke-width="0.1"/>
<path d="M32.0911 23.8154L27.7957 26.2599V31.1489L32.0911 28.5007V23.8154Z" fill="#345D73" stroke="black" stroke-width="0.1"/>
<path d="M32.0909 23.8146L27.7955 26.2591L23.5 23.8146L27.7955 21.3701L32.0909 23.8146Z" fill="#6EB998" stroke="black" stroke-width="0.1"/>
<path d="M27.7955 26.2599V31.1489L23.5 28.5007V23.8154L27.7955 26.2599Z" fill="#416F64" stroke="black" stroke-width="0.1"/>
<path d="M22.8863 29.1115V34.0004L18.5908 31.3522V26.667L22.8863 29.1115Z" fill="#416F64" stroke="black" stroke-width="0.1"/>
<path d="M27.1817 26.6671L22.8863 29.1116L18.5908 26.6671L22.8863 24.2227L27.1817 26.6671Z" fill="#6EB998" stroke="black" stroke-width="0.1"/>
<path d="M27.1817 26.667L22.8862 29.1115V34.0004L27.1817 31.3522V26.667Z" fill="#345D73" stroke="black" stroke-width="0.1"/>
<path d="M23.0908 11.7965L27.1817 9.35205V14.0373L23.0908 16.8892V11.7965Z" fill="#384772" stroke="black" stroke-width="0.1"/>
<path d="M23.0909 6.90723L19 9.35171L23.0909 11.7962L27.1818 9.35171L23.0909 6.90723Z" fill="#D2CBD3" stroke="black" stroke-width="0.1"/>
<path d="M19 9.35205L23.0909 11.7965V16.8892L19 14.0373V9.35205Z" fill="#85869A" stroke="black" stroke-width="0.1"/>
<path d="M15.9317 17.9074V22.7963L11.6362 20.3519V15.4629L15.9317 17.9074Z" fill="#85869A" stroke="black" stroke-width="0.1"/>
<path d="M15.9319 17.9074V22.7963L20.2273 20.3519V15.4629L15.9319 17.9074Z" fill="#384772" stroke="black" stroke-width="0.1"/>
<path d="M11.6365 15.4635L15.9319 17.908L20.2274 15.4635L15.9319 13.019L11.6365 15.4635Z" fill="#D2CBD3" stroke="black" stroke-width="0.1"/>
<path d="M36.9996 15.2598L32.7041 17.7042V22.5932L36.9996 19.945V15.2598Z" fill="#345D73" stroke="black" stroke-width="0.1"/>
<path d="M37.0001 15.2594L32.7046 17.7039L28.4092 15.2594L32.7046 12.8149L37.0001 15.2594Z" fill="#6EB998" stroke="black" stroke-width="0.1"/>
<path d="M32.7044 17.7042V22.5932L28.4089 19.945V15.2598L32.7044 17.7042Z" fill="#416F64" stroke="black" stroke-width="0.1"/>
<path d="M32.0911 18.1113L27.7957 20.5558V25.4448L32.0911 22.7966V18.1113Z" fill="#345D73" stroke="black" stroke-width="0.1"/>
<path d="M32.0909 18.1115L27.7955 20.556L23.5 18.1115L27.7955 15.667L32.0909 18.1115Z" fill="#6EB998" stroke="black" stroke-width="0.1"/>
<path d="M27.7955 20.5558V25.4448L23.5 22.7966V18.1113L27.7955 20.5558Z" fill="#416F64" stroke="black" stroke-width="0.1"/>
<path d="M27.1817 20.963L22.8863 23.4075L18.5908 20.963L22.8863 18.5186L27.1817 20.963Z" fill="#6EB998" stroke="black" stroke-width="0.1"/>
<path d="M22.8863 23.4083V28.2973L18.5908 25.6491V20.9639L22.8863 23.4083Z" fill="#416F64" stroke="black" stroke-width="0.1"/>
<path d="M27.1817 20.9639L22.8862 23.4083V28.2973L27.1817 25.6491V20.9639Z" fill="#345D73" stroke="black" stroke-width="0.1"/>
<path d="M37.0001 9.55542L32.7046 11.9999L28.4092 9.35171L32.7046 6.90723L37.0001 9.55542Z" fill="#6EB998" stroke="black" stroke-width="0.1"/>
<path d="M36.9996 9.55566L32.7041 12.0001V16.6854L36.9996 14.2409V9.55566Z" fill="#345D73" stroke="black" stroke-width="0.1"/>
<path d="M32.7044 12.0002L28.4089 9.35205V14.241L32.7044 16.6855V12.0002Z" fill="#416F64" stroke="black" stroke-width="0.1"/>
<path d="M32.0911 12.4072L27.7957 14.8517V19.537L32.0911 17.0925V12.4072Z" fill="#345D73" stroke="black" stroke-width="0.1"/>
<path d="M32.0909 12.408L27.7955 14.8524L23.5 12.2042L27.7955 9.75977L32.0909 12.408Z" fill="#6EB998" stroke="black" stroke-width="0.1"/>
<path d="M27.7955 14.8523L23.5 12.2041V17.0931L27.7955 19.5375V14.8523Z" fill="#416F64" stroke="black" stroke-width="0.1"/>
<path d="M27.1817 15.2595L22.8863 17.704L18.5908 15.0558L22.8863 12.6113L27.1817 15.2595Z" fill="#6EB998" stroke="black" stroke-width="0.1"/>
<path d="M22.8863 17.7039L18.5908 15.0557V19.9446L22.8863 22.3891V17.7039Z" fill="#416F64" stroke="black" stroke-width="0.1"/>
<path d="M27.1817 15.2598L22.8862 17.7042V22.3895L27.1817 19.945V15.2598Z" fill="#345D73" stroke="black" stroke-width="0.1"/>
<path d="M5.90889 14.4443L3.45435 15.8702V12.8146L5.90889 11.3887V14.4443Z" fill="#384772" stroke="black" stroke-width="0.1"/>
<path d="M3.45455 12.8148L5.90909 11.3888L3.45455 9.96289L1 11.3888L3.45455 12.8148Z" fill="#D2CBD3" stroke="black" stroke-width="0.1"/>
<path d="M1 11.3887L3.45455 12.8146V15.8702L1 14.4443V11.3887Z" fill="#85869A" stroke="black" stroke-width="0.1"/>
<path d="M18.5907 10.7778L15.7271 12.4074V9.35182L18.5907 7.72217V10.7778Z" fill="#384772" stroke="black" stroke-width="0.1"/>
<path d="M13.0681 7.72217L15.7272 9.35182V12.4074L13.0681 10.7778V7.72217Z" fill="#85869A" stroke="black" stroke-width="0.1"/>
<path d="M15.7272 9.35199L18.5908 7.72233L15.7272 6.29639L13.0681 7.72233L15.7272 9.35199Z" fill="#D2CBD3" stroke="black" stroke-width="0.1"/>
</svg>
