<svg width="160" height="72" viewBox="0 0 160 72" fill="none" xmlns="http://www.w3.org/2000/svg">
<path d="M51.571 41.2205H47.1183L46.1148 45.0778H42.5153L47.5694 27.2549H51.1506L56.2047 45.0778H52.5898L51.571 41.2205ZM47.8272 38.4986H50.8621L49.383 32.843H49.3093L47.8272 38.4986Z" fill="#424554"/>
<path d="M70.0567 42.727C69.477 43.5029 68.7248 44.1332 67.8595 44.5683C66.9021 45.0838 65.6644 45.3405 64.1464 45.3385C62.2192 45.3385 60.6747 44.7779 59.5127 43.6568C58.3507 42.5357 57.7697 40.9421 57.7697 38.8758V33.4627C57.7697 31.4025 58.3343 29.8109 59.4636 28.6878C60.5929 27.5646 62.0883 27.002 63.95 27C65.8915 27 67.3563 27.4583 68.3444 28.3748C69.3325 29.2913 69.8092 30.5996 69.7744 32.2996L69.7498 32.3702H66.4939C66.4939 31.4496 66.2914 30.7653 65.8802 30.3387C65.469 29.9122 64.8553 29.7035 64.039 29.7035C63.6443 29.6828 63.2502 29.7553 62.8887 29.9152C62.5272 30.0752 62.2085 30.318 61.9584 30.6241C61.4592 31.2379 61.2097 32.1728 61.2097 33.4289V38.8605C61.2097 40.133 61.4633 41.0802 61.9707 41.7021C62.2356 42.0131 62.5693 42.2582 62.9453 42.418C63.3213 42.5778 63.7294 42.6479 64.1372 42.6227C64.6734 42.6442 65.2088 42.563 65.7145 42.3833C66.0578 42.2539 66.3614 42.037 66.5952 41.7543V38.1731H63.8794V35.7856H70.0475L70.0567 42.727Z" fill="#424554"/>
<path d="M76.6206 37.9267V45.0767H73.1683V27.2783H78.5048C80.2744 27.2783 81.6676 27.7396 82.6843 28.6623C83.7011 29.585 84.2125 30.8697 84.2187 32.5166C84.2397 33.3619 84.0159 34.1953 83.5742 34.9163C83.1226 35.6159 82.485 36.1759 81.733 36.5335C82.5724 36.7719 83.2898 37.3204 83.74 38.0678C84.1751 38.8974 84.3866 39.826 84.3537 40.7621V42.0571C84.3572 42.5843 84.4148 43.1098 84.5255 43.6252C84.5931 44.0816 84.8087 44.5032 85.1393 44.8251V45.0829H81.5305C81.2055 44.7329 81.0133 44.2801 80.9873 43.8032C80.909 43.2173 80.87 42.6268 80.8707 42.0357V40.7867C80.8707 39.8661 80.6835 39.1787 80.3061 38.6816C80.1188 38.4343 79.8737 38.2367 79.5923 38.1061C79.3109 37.9756 79.0017 37.9161 78.692 37.9328L76.6206 37.9267ZM76.6206 35.2354H78.4802C78.7945 35.2565 79.1096 35.2075 79.4025 35.0918C79.6955 34.9761 79.9591 34.7966 80.1741 34.5665C80.5952 34.03 80.8029 33.3566 80.7572 32.6762C80.7944 31.9692 80.591 31.2704 80.1803 30.6938C79.9792 30.4473 79.7224 30.2523 79.4311 30.1247C79.1397 29.9972 78.8222 29.9409 78.5048 29.9604H76.6206V35.2354Z" fill="#424554"/>
<path d="M91.2615 45.0778H87.8214V27.2549H91.2615V45.0778Z" fill="#424554"/>
<path d="M106.513 39.5448L106.537 39.6185C106.57 41.5272 106.083 42.9592 105.077 43.9146C104.07 44.87 102.632 45.3446 100.762 45.3385C98.8453 45.3385 97.3232 44.7739 96.196 43.6446C95.0687 42.5153 94.5061 40.9094 94.5082 38.8267V33.5332C94.5082 31.4629 95.0524 29.8559 96.1407 28.7123C97.2291 27.5687 98.701 26.998 100.557 27C102.506 27 104.004 27.4726 105.049 28.4177C106.095 29.3629 106.6 30.795 106.565 32.7139L106.541 32.7876H103.186C103.186 31.646 102.982 30.8461 102.573 30.3878C102.164 29.9296 101.488 29.7015 100.547 29.7035C100.172 29.6787 99.7956 29.7502 99.4551 29.9113C99.1146 30.0724 98.8209 30.3178 98.6018 30.6241C98.1691 31.2379 97.9513 32.2045 97.9513 33.4964V38.8053C97.9513 40.1043 98.1845 41.0659 98.6509 41.6898C99.1174 42.3138 99.8191 42.6207 100.756 42.6104C101.613 42.6104 102.227 42.3844 102.597 41.9322C102.972 41.4781 103.162 40.671 103.162 39.5141L106.513 39.5448Z" fill="#00C7BE"/>
<path d="M121.964 45.0778H118.524V37.6485H112.782V45.0778H109.333V27.2549H112.782V34.9542H118.524V27.2549H121.964V45.0778Z" fill="#00C7BE"/>
<path d="M133.471 41.2205H129.016L128.012 45.0778H124.412L129.467 27.2549H133.042L138.096 45.0778H134.487L133.471 41.2205ZM129.724 38.4986H132.759L131.28 32.843H131.207L129.724 38.4986Z" fill="#00C7BE"/>
<path d="M143.791 45.0778H140.351V27.2549H143.791V45.0778Z" fill="#00C7BE"/>
<path d="M160 45.0778H156.548L150.883 33.7053H150.809V45.0594H147.357V27.2549H150.809L156.465 38.6397H156.539V27.2549H159.991L160 45.0778Z" fill="#00C7BE"/>
<path d="M30.1822 27H24.0009H23.999H23.9953L23.9972 27.0019L21.455 29.5459L27.7567 35.8477L30.3008 33.3055L30.3101 33.3166H39.2096V27H30.1822Z" fill="#00C7BE"/>
<path d="M27.2565 39.0273L21.5439 33.3166L15.2291 27H9.11637H6.31475H0V33.3166V39.0273V45.3421H6.31475H7.68035H15.6868L15.6979 45.3309L18.2605 42.7683L11.9569 36.4666L9.39616 39.0273H9.3943H6.31475V33.3166H12.6128L14.273 34.975L15.3904 36.0941L18.3254 39.0273L20.5878 41.2916L24.6401 45.3421H33.4063H33.5712H39.2096V42.2143V39.0273H36.0226H27.2565Z" fill="#424554"/>
</svg>
