<svg width="160" height="72" viewBox="0 0 160 72" fill="none" xmlns="http://www.w3.org/2000/svg">
<g clip-path="url(#clip0)">
<path d="M60.7861 48.7633H59.9526V44.6846H60.7861V48.7633Z" fill="#424554"/>
<path d="M65.121 45.4397H63.8145V48.7633H62.981V45.4397H61.6746V44.6846H65.1183L65.121 45.4397Z" fill="#424554"/>
<path d="M67.1302 47.1329H65.5625V46.4326H67.1302V47.1329Z" fill="#424554"/>
<path d="M69.7536 44.6847C69.9543 44.6825 70.154 44.7143 70.3441 44.7787C70.5141 44.8342 70.6713 44.9231 70.8066 45.04C70.9359 45.1565 71.0391 45.299 71.1097 45.4581C71.2524 45.8036 71.2524 46.1916 71.1097 46.5372C71.0384 46.6951 70.9352 46.8366 70.8066 46.9527C70.6711 47.0693 70.5139 47.1581 70.3441 47.2139C70.1544 47.2805 69.9546 47.3132 69.7536 47.3106H69.0507V48.7503H68.2146V44.6847H69.7536ZM69.0507 45.4215V46.5947H69.7484C69.8318 46.6 69.9154 46.5881 69.9941 46.5598C70.0727 46.5315 70.1447 46.4873 70.2056 46.4301C70.2597 46.3731 70.3017 46.3057 70.3291 46.2321C70.3565 46.1585 70.3687 46.08 70.365 46.0016C70.3684 45.9243 70.356 45.8471 70.3286 45.7748C70.3012 45.7025 70.2593 45.6365 70.2056 45.5809C70.1439 45.5251 70.0717 45.4822 69.9931 45.4549C69.9146 45.4275 69.8314 45.4161 69.7484 45.4215H69.0507Z" fill="#424554"/>
<path d="M73.0537 48.7633H72.2175V44.6846H73.0537V48.7633Z" fill="#424554"/>
<path d="M79.808 48.7633H74.3209V44.6846H75.1544V48.0082H76.6438V44.6846H77.4956V48.0082H78.9849V44.6846H79.8184L79.808 48.7633Z" fill="#424554"/>
<path d="M83.8214 45.4397H81.914V46.268H83.3223V46.9761H81.914V48.0212H83.8971V48.7763H81.0804V44.6846H83.8214V45.4397Z" fill="#424554"/>
<path d="M88.4278 48.7633H87.5943V47.0022H85.7914V48.7633H84.9579V44.6846H85.7914V46.2523H87.5943V44.6846H88.4278V48.7633Z" fill="#424554"/>
<path d="M93.1729 48.7633H92.3368V47.0022H90.5338V48.7633H89.7003V44.6846H90.5338V46.2523H92.3368V44.6846H93.1729V48.7633Z" fill="#424554"/>
<path d="M97.4398 48.7634H96.6063V47.5092H95.8825L95.0568 48.7634H94.124L95.0934 47.2793C94.8923 47.1618 94.7249 46.9944 94.6074 46.7933C94.5031 46.599 94.4437 46.3838 94.4338 46.1636C94.4238 45.9433 94.4635 45.7236 94.5499 45.5208C94.6252 45.3507 94.7356 45.1984 94.8739 45.074C95.019 44.9466 95.1877 44.849 95.3704 44.7866C95.5747 44.7169 95.7894 44.6824 96.0053 44.6847H97.4398V48.7634ZM95.9948 45.4215C95.8996 45.416 95.8041 45.4299 95.7143 45.4622C95.6245 45.4945 95.5422 45.5447 95.4723 45.6096C95.4097 45.6732 95.3607 45.7488 95.3284 45.8319C95.296 45.915 95.281 46.0039 95.2841 46.093C95.281 46.1829 95.2961 46.2725 95.3284 46.3565C95.3607 46.4405 95.4097 46.517 95.4723 46.5816C95.5416 46.6476 95.6238 46.6985 95.7137 46.7313C95.8036 46.7642 95.8993 46.7781 95.9948 46.7724H96.6063V45.4215H95.9948Z" fill="#424554"/>
<path d="M104.596 49.6334H103.763V48.7633H101.226V49.6334H100.392V48.0082H100.706C100.841 47.8981 100.959 47.7687 101.056 47.6241C101.166 47.4557 101.254 47.2739 101.317 47.0832C101.394 46.8424 101.447 46.5947 101.477 46.3437C101.517 46.017 101.536 45.6879 101.534 45.3587V44.6846H104.066V48.0082H104.602L104.596 49.6334ZM102.318 45.4397C102.323 45.968 102.261 46.4949 102.133 47.0074C102.038 47.3769 101.865 47.7217 101.626 48.0186H103.225V45.4501L102.318 45.4397Z" fill="#424554"/>
<path d="M108.709 48.7633H107.876V45.4397H106.857C106.859 45.982 106.812 46.5234 106.715 47.0571C106.655 47.4132 106.533 47.7562 106.355 48.0709C106.225 48.2988 106.033 48.4854 105.801 48.6091C105.579 48.7174 105.337 48.7804 105.09 48.7946V48.0108C105.249 47.9931 105.399 47.9285 105.521 47.8252C105.658 47.6993 105.761 47.5413 105.822 47.3654C105.915 47.1127 105.975 46.8494 106.002 46.5815C106.044 46.2024 106.063 45.8211 106.06 45.4397V44.6846H108.709V48.7633Z" fill="#424554"/>
<path d="M112.984 48.7631H112.15V47.5089H111.426L110.601 48.7631H109.668L110.637 47.279C110.436 47.1615 110.269 46.9941 110.151 46.793C110.047 46.5987 109.988 46.3835 109.978 46.1633C109.968 45.943 110.007 45.7233 110.094 45.5205C110.169 45.3494 110.279 45.1963 110.418 45.0711C110.563 44.9437 110.732 44.8461 110.914 44.7837C111.119 44.7139 111.333 44.6795 111.549 44.6817H112.984V48.7631ZM111.539 45.4212C111.443 45.4157 111.348 45.4296 111.258 45.4619C111.168 45.4942 111.086 45.5444 111.016 45.6093C110.954 45.6729 110.905 45.7485 110.872 45.8316C110.84 45.9147 110.825 46.0036 110.828 46.0927C110.825 46.1826 110.84 46.2722 110.872 46.3562C110.905 46.4401 110.954 46.5167 111.016 46.5813C111.086 46.6473 111.168 46.6982 111.258 46.731C111.348 46.7638 111.443 46.7778 111.539 46.7721H112.15V45.4212H111.539Z" fill="#424554"/>
<path d="M119.563 48.7632H118.667L118.437 48.2406H116.77L116.543 48.7632H115.644L117.473 44.6113H117.734L119.563 48.7632ZM117.06 47.5456H118.142L117.603 46.1686L117.06 47.5456Z" fill="#424554"/>
<path d="M123.075 45.4397H121.282V48.7633H120.449V44.6846H123.075V45.4397Z" fill="#424554"/>
<path d="M125.573 44.6847C125.773 44.6824 125.971 44.7142 126.161 44.7788C126.332 44.8336 126.49 44.9225 126.626 45.04C126.754 45.1573 126.857 45.2995 126.929 45.4581C127.071 45.8036 127.071 46.1917 126.929 46.5372C126.857 46.6946 126.754 46.8359 126.626 46.9527C126.49 47.0699 126.331 47.1587 126.161 47.214C125.972 47.2807 125.773 47.3134 125.573 47.3106H124.867V48.7503H124.034V44.6847H125.573ZM124.867 45.4215V46.5947H125.573C125.656 46.6001 125.74 46.5883 125.818 46.56C125.897 46.5317 125.969 46.4875 126.03 46.4301C126.084 46.3732 126.127 46.306 126.155 46.2323C126.182 46.1587 126.195 46.0802 126.192 46.0016C126.195 45.9241 126.182 45.8469 126.154 45.7746C126.126 45.7023 126.084 45.6364 126.03 45.5809C125.968 45.5249 125.896 45.4818 125.818 45.4544C125.739 45.4271 125.656 45.4159 125.573 45.4215H124.867Z" fill="#424554"/>
<path d="M129.968 44.6105C130.257 44.6074 130.544 44.6624 130.812 44.7725C131.067 44.8731 131.301 45.0232 131.499 45.2142C131.696 45.4052 131.854 45.6334 131.964 45.8856C132.076 46.1505 132.134 46.4353 132.134 46.723C132.134 47.0107 132.076 47.2955 131.964 47.5604C131.855 47.8118 131.698 48.0391 131.501 48.2293C131.303 48.4218 131.068 48.5736 130.812 48.6761C130.543 48.7841 130.257 48.8382 129.968 48.8355C129.678 48.8379 129.39 48.7838 129.121 48.6761C128.865 48.574 128.631 48.4222 128.434 48.2293C128.239 48.0376 128.083 47.8106 127.974 47.5604C127.862 47.2955 127.804 47.0107 127.804 46.723C127.804 46.4353 127.862 46.1505 127.974 45.8856C128.084 45.6346 128.242 45.4075 128.439 45.2167C128.635 45.0242 128.868 44.8732 129.124 44.7725C129.391 44.6624 129.678 44.6074 129.968 44.6105V44.6105ZM129.968 45.3943C129.789 45.3921 129.611 45.4249 129.445 45.491C129.29 45.555 129.149 45.6502 129.032 45.7706C128.916 45.8917 128.827 46.036 128.771 46.1939C128.704 46.3663 128.671 46.5499 128.674 46.7348C128.672 46.9204 128.705 47.1048 128.771 47.2782C128.827 47.4361 128.916 47.5804 129.032 47.7015C129.15 47.8195 129.291 47.9128 129.445 47.9759C129.611 48.0429 129.789 48.0766 129.968 48.0752C130.147 48.077 130.324 48.0433 130.49 47.9759C130.646 47.9128 130.788 47.8196 130.908 47.7015C131.023 47.5796 131.112 47.4356 131.17 47.2782C131.237 47.105 131.27 46.9206 131.269 46.7348C131.271 46.5497 131.237 46.3661 131.17 46.1939C131.112 46.0365 131.023 45.8925 130.908 45.7706C130.789 45.65 130.647 45.5549 130.49 45.491C130.326 45.4216 130.151 45.3852 129.973 45.3839L129.968 45.3943Z" fill="#424554"/>
<path d="M135.865 45.4397H134.017V46.3359H135C135.185 46.3336 135.37 46.3609 135.546 46.4169C135.703 46.4676 135.848 46.5503 135.972 46.6599C136.085 46.7659 136.174 46.8952 136.233 47.0388C136.302 47.1943 136.336 47.3628 136.333 47.5326C136.336 47.7059 136.302 47.8778 136.233 48.0369C136.174 48.1825 136.085 48.3142 135.972 48.4236C135.849 48.5348 135.704 48.6193 135.546 48.6718C135.371 48.7339 135.186 48.7648 135 48.7633H133.184V44.6846H135.865V45.4397ZM134.017 47.0205V48.0474H134.937C135.093 48.0565 135.246 48.0081 135.368 47.9115C135.464 47.8097 135.518 47.6751 135.518 47.5352C135.518 47.3954 135.464 47.2608 135.368 47.159C135.247 47.0605 135.093 47.0111 134.937 47.0205H134.017Z" fill="#424554"/>
<path d="M138.193 48.7633H137.359V44.6846H138.193V48.7633Z" fill="#424554"/>
<path d="M140.766 44.6105C140.954 44.6083 141.14 44.6384 141.318 44.6993C141.48 44.7586 141.629 44.8472 141.759 44.9606C141.884 45.0661 141.985 45.1971 142.055 45.3447C142.125 45.4899 142.162 45.6485 142.164 45.8096C142.166 45.9707 142.134 46.1304 142.068 46.2775C142.004 46.4118 141.91 46.5297 141.793 46.6224C141.97 46.7057 142.122 46.8347 142.232 46.996C142.342 47.1662 142.398 47.3658 142.392 47.5682C142.394 47.7496 142.353 47.9288 142.272 48.0908C142.192 48.2461 142.079 48.3825 141.942 48.4906C141.794 48.6068 141.626 48.6954 141.446 48.7519C141.248 48.8139 141.042 48.8447 140.834 48.8433C140.491 48.8508 140.153 48.7601 139.86 48.582C139.59 48.4163 139.372 48.1782 139.23 47.8949L139.81 47.4768C139.914 47.6559 140.062 47.8049 140.241 47.9089C140.42 48.013 140.622 48.0685 140.829 48.0699C141.014 48.0749 141.196 48.0249 141.352 47.9262C141.42 47.8828 141.475 47.8223 141.512 47.7507C141.549 47.6792 141.567 47.5991 141.563 47.5186C141.565 47.4524 141.552 47.3868 141.526 47.326C141.499 47.2652 141.461 47.2106 141.412 47.1659C141.293 47.065 141.139 47.0144 140.983 47.0248H140.181V46.3402H140.811C140.882 46.3455 140.954 46.3362 141.021 46.3128C141.088 46.2894 141.15 46.2525 141.203 46.2043C141.246 46.1603 141.28 46.108 141.303 46.0506C141.326 45.9931 141.337 45.9317 141.336 45.8699C141.338 45.8037 141.325 45.7379 141.299 45.6774C141.272 45.6168 141.232 45.5629 141.182 45.5197C141.064 45.428 140.916 45.3816 140.766 45.3891C140.592 45.3866 140.42 45.4347 140.273 45.5276C140.116 45.629 139.984 45.7626 139.883 45.9195L139.298 45.5041C139.436 45.24 139.642 45.0173 139.894 44.8587C140.155 44.6936 140.458 44.6074 140.766 44.6105V44.6105Z" fill="#424554"/>
<path d="M146.907 48.7633H146.073V47.0022H144.27V48.7633H143.434V44.6846H144.27V46.2523H146.073V44.6846H146.907V48.7633Z" fill="#424554"/>
<path d="M150.918 45.4397H149.01V46.268H150.418V46.9761H149.01V48.0212H150.993V48.7763H148.177V44.6846H150.918V45.4397Z" fill="#424554"/>
<path d="M153.867 44.6107C154.239 44.6017 154.606 44.6919 154.931 44.872C155.239 45.0498 155.494 45.3058 155.67 45.614L155.033 46.0582C154.911 45.8531 154.743 45.6795 154.542 45.5513C154.339 45.4286 154.105 45.3669 153.867 45.3736C153.689 45.3711 153.511 45.404 153.345 45.4703C153.189 45.5349 153.048 45.6299 152.929 45.7499C152.816 45.874 152.728 46.0186 152.668 46.1758C152.601 46.349 152.567 46.5334 152.569 46.7193C152.567 46.9043 152.6 47.0879 152.668 47.2601C152.728 47.4155 152.817 47.5581 152.929 47.6808C153.049 47.798 153.19 47.8912 153.345 47.9552C153.511 48.0224 153.688 48.0561 153.867 48.0544C154.105 48.0602 154.339 47.9976 154.542 47.8742C154.743 47.746 154.911 47.5724 155.033 47.3673L155.67 47.8114C155.494 48.1197 155.239 48.3757 154.931 48.5535C154.606 48.7336 154.239 48.8238 153.867 48.8148C153.575 48.8177 153.285 48.7636 153.013 48.6554C152.499 48.4498 152.087 48.0485 151.869 47.5397C151.757 47.2747 151.699 46.99 151.699 46.7023C151.699 46.4146 151.757 46.1298 151.869 45.8648C151.977 45.6142 152.133 45.387 152.329 45.1959C152.525 45.0035 152.757 44.8525 153.013 44.7518C153.286 44.6487 153.576 44.6007 153.867 44.6107Z" fill="#424554"/>
<path d="M158.615 47.8984C158.512 48.1851 158.319 48.4309 158.066 48.5998C157.812 48.7687 157.511 48.8517 157.207 48.8364C157.114 48.8358 157.022 48.8288 156.93 48.8155C156.836 48.7999 156.747 48.7842 156.669 48.7633V48.0473C156.817 48.0473 156.93 48.0656 157.04 48.0656C157.179 48.0655 157.317 48.0398 157.447 47.9899C157.583 47.9366 157.696 47.8389 157.769 47.7129L156.324 44.6846H157.288L158.221 46.7749L159.054 44.6846H160.005L158.615 47.8984Z" fill="#424554"/>
<path d="M67.6633 35.108H63.872L63.0176 38.3924H59.9526L64.2561 23.2168H67.3053L71.6087 38.3924H68.5307L67.6633 35.108ZM64.4755 32.7904H67.0597L65.8003 27.9749H65.7376L64.4755 32.7904Z" fill="#424554"/>
<path d="M83.4033 36.391C82.9097 37.0516 82.2692 37.5883 81.5325 37.9588C80.7172 38.3977 79.6634 38.6163 78.3709 38.6146C76.73 38.6146 75.4148 38.1373 74.4254 37.1827C73.436 36.2282 72.9413 34.8712 72.9413 33.1119V28.5027C72.9413 26.7486 73.4221 25.3934 74.3836 24.4371C75.3451 23.4808 76.6185 23.0017 78.2036 23C79.8567 23 81.1039 23.3902 81.9453 24.1706C82.7866 24.9509 83.1925 26.0649 83.1629 27.5124L83.142 27.5725H80.3697C80.3697 26.7887 80.1973 26.206 79.8471 25.8428C79.497 25.4796 78.9744 25.302 78.2794 25.302C77.9433 25.2843 77.6078 25.346 77.3 25.4822C76.9922 25.6184 76.7208 25.8252 76.5079 26.0858C76.0828 26.6084 75.8703 27.4044 75.8703 28.474V33.0988C75.8703 34.1823 76.0863 34.9888 76.5183 35.5183C76.7439 35.7831 77.028 35.9918 77.3482 36.1279C77.6684 36.2639 78.0158 36.3236 78.363 36.3022C78.8196 36.3205 79.2755 36.2513 79.7061 36.0984C79.9984 35.9881 80.2569 35.8035 80.4559 35.5627V32.5135H78.1435V30.4807H83.3954L83.4033 36.391Z" fill="#424554"/>
<path d="M88.9922 32.304V38.392H86.0527V23.2373H90.5965C92.1033 23.2373 93.2895 23.6301 94.1553 24.4157C95.021 25.2013 95.4565 26.2953 95.4617 27.6975C95.4796 28.4173 95.2891 29.1268 94.913 29.7408C94.5284 30.3365 93.9856 30.8133 93.3453 31.1178C94.06 31.3208 94.6708 31.7878 95.0541 32.4242C95.4246 33.1305 95.6047 33.9212 95.5767 34.7183V35.821C95.5796 36.2698 95.6287 36.7173 95.723 37.1561C95.7805 37.5448 95.9641 37.9037 96.2456 38.1778V38.3973H93.1728C92.8961 38.0993 92.7325 37.7138 92.7103 37.3077C92.6436 36.8088 92.6105 36.306 92.6111 35.8027V34.7392C92.6111 33.9554 92.4517 33.3701 92.1303 32.9468C91.9708 32.7362 91.7621 32.568 91.5225 32.4568C91.2829 32.3457 91.0197 32.295 90.7559 32.3092L88.9922 32.304ZM88.9922 30.0125H90.5756C90.8432 30.0305 91.1115 29.9887 91.3609 29.8902C91.6104 29.7917 91.8348 29.6389 92.0179 29.4429C92.3765 28.9861 92.5533 28.4128 92.5144 27.8334C92.546 27.2314 92.3729 26.6364 92.0232 26.1454C91.852 25.9356 91.6333 25.7695 91.3852 25.6609C91.1372 25.5523 90.8668 25.5044 90.5965 25.521H88.9922V30.0125Z" fill="#424554"/>
<path d="M101.458 38.3924H98.5293V23.2168H101.458V38.3924Z" fill="#424554"/>
<path d="M114.444 33.6815L114.465 33.7442C114.493 35.3694 114.079 36.5887 113.222 37.4022C112.365 38.2157 111.14 38.6198 109.548 38.6146C107.916 38.6146 106.62 38.1338 105.66 37.1723C104.7 36.2107 104.221 34.8433 104.223 33.0701V28.5628C104.223 26.8 104.686 25.4317 105.613 24.458C106.54 23.4842 107.793 22.9983 109.373 23C111.033 23 112.308 23.4024 113.198 24.2072C114.088 25.0119 114.518 26.2313 114.489 27.8652L114.468 27.9279H111.612C111.612 26.9559 111.438 26.2748 111.089 25.8846C110.741 25.4944 110.166 25.3002 109.365 25.302C109.045 25.2808 108.725 25.3417 108.435 25.4789C108.145 25.616 107.895 25.825 107.708 26.0858C107.34 26.6084 107.154 27.4315 107.154 28.5315V33.0518C107.154 34.1579 107.353 34.9766 107.75 35.5079C108.147 36.0392 108.745 36.3005 109.543 36.2917C110.272 36.2917 110.795 36.0993 111.11 35.7143C111.429 35.3276 111.591 34.6404 111.591 33.6553L114.444 33.6815Z" fill="#00C7BE"/>
<path d="M127.6 38.3924H124.671V32.0666H119.782V38.3924H116.846V23.2168H119.782V29.7725H124.671V23.2168H127.6V38.3924Z" fill="#00C7BE"/>
<path d="M137.399 35.108H133.605L132.75 38.3924H129.685L133.989 23.2168H137.033L141.336 38.3924H138.263L137.399 35.108ZM134.208 32.7904H136.792L135.533 27.9749H135.47L134.208 32.7904Z" fill="#00C7BE"/>
<path d="M146.186 38.3924H143.257V23.2168H146.186V38.3924Z" fill="#00C7BE"/>
<path d="M159.987 38.3924H157.047L152.224 28.7091H152.161V38.3768H149.222V23.2168H152.161L156.977 32.9106H157.04V23.2168H159.979L159.987 38.3924Z" fill="#00C7BE"/>
<path d="M42.5612 23H33.8446H33.842H33.8368L33.8394 23.0026L30.2545 26.5901L39.1409 35.4765L42.7284 31.8916L42.7415 31.9073H55.2912V23H42.5612Z" fill="#00C7BE"/>
<path d="M38.4355 39.9602L30.38 31.9073L21.4753 23H12.8554H8.90471H0V31.9073V39.9602V48.8649H8.90471H10.8304H22.1207L22.1364 48.8493L25.75 45.2357L16.8609 36.3492L13.2499 39.9602H13.2473H8.90471V31.9073H17.7859L20.1271 34.2459L21.7026 35.824L25.8414 39.9602L29.0318 43.1532L34.7461 48.8649H47.1077H47.3402H55.2913V44.4544V39.9602H50.7971H38.4355Z" fill="#424554"/>
</g>
<defs>
<clipPath id="clip0">
<rect width="160" height="72" fill="white"/>
</clipPath>
</defs>
</svg>
