<svg width="160" height="73" viewBox="0 0 160 73" fill="none" xmlns="http://www.w3.org/2000/svg">
<g clip-path="url(#clip0)">
<path d="M40.7807 36.7504L45.8538 33.781L45.8683 39.7014L40.7807 42.68V36.7504Z" fill="#393B3F"/>
<path d="M46.9857 33.2013L52.0589 30.2319L52.0733 36.1511L46.9857 39.1309V33.2013Z" fill="#393B3F"/>
<path d="M53.28 29.5381L58.3531 26.5687L58.3676 32.4892L53.28 35.469V29.5381Z" fill="#393B3F"/>
<path d="M40.8305 43.905L45.905 40.9343L45.9181 46.8548L40.8305 49.8346V43.905Z" fill="#393B3F"/>
<path d="M47.088 40.3677L52.1612 37.397L52.1756 43.3187L47.088 46.2973V40.3677Z" fill="#393B3F"/>
<path d="M53.28 36.7504L58.3531 33.781L58.3676 39.7014L53.28 42.68V36.7504Z" fill="#393B3F"/>
<path d="M40.8948 51.1895L45.9679 48.2188L45.9824 54.1392L40.8948 57.1191V51.1895Z" fill="#393B3F"/>
<path d="M47.0198 47.521L52.0943 44.5516L52.1074 50.4721L47.0198 53.4507V47.521Z" fill="#393B3F"/>
<path d="M53.2367 43.905L58.3111 40.9343L58.3242 46.8548L53.2367 49.8346V43.905Z" fill="#393B3F"/>
<path d="M35.6656 33.7876L40.7807 36.7504V42.68L35.68 39.6883L35.6656 33.7876Z" fill="#5C6783"/>
<path d="M35.6419 40.9382L40.7558 43.9011V49.8307L35.6564 46.8377L35.6419 40.9382Z" fill="#5C6783"/>
<path d="M35.6813 48.2227L40.7951 51.1855V57.1151L35.6944 54.1221L35.6813 48.2227Z" fill="#5C6783"/>
<path d="M41.843 30.1833L46.9857 33.2013L46.9988 39.0653L45.8643 38.4017L45.8538 33.781L41.8417 31.407L41.843 30.1833Z" fill="#5C6783"/>
<path d="M48.1242 26.5779L53.2655 29.5945L53.28 35.4598L52.1454 34.7962L52.135 30.1742L48.1229 27.8003L48.1242 26.5779Z" fill="#5C6783"/>
<path d="M52.0733 36.151L53.2629 36.7189L53.276 42.7141L52.2163 42.1305L52.1323 37.2986L51.0713 36.6887L52.0733 36.151Z" fill="#5C6783"/>
<path d="M45.8682 39.7014L46.9818 40.3244L46.9962 46.1885L45.8617 45.5248L45.8512 40.9041L44.9095 40.3257L45.8682 39.7014Z" fill="#5C6783"/>
<path d="M52.0641 43.3358L53.255 43.9024L53.2681 49.7664L52.1336 49.1028L52.1231 44.4821L51.0634 43.8736L52.0641 43.3358Z" fill="#5C6783"/>
<path d="M45.8591 46.8849L46.9739 47.5079L46.987 53.3732L45.8538 52.7083L45.8434 48.0876L44.9016 47.5092L45.8591 46.8849Z" fill="#5C6783"/>
<path d="M35.6656 33.7876L40.7322 30.7762L45.8538 33.781L40.7807 36.7504L35.6656 33.7876Z" fill="#4E5671"/>
<path d="M41.9178 30.1651L46.9844 27.1537L52.1061 30.1585L47.0316 33.1292L41.9178 30.1651Z" fill="#4E5671"/>
<path d="M48.1399 26.5398L53.2065 23.5284L58.3282 26.5333L53.2537 29.504L48.1399 26.5398Z" fill="#4E5671"/>
<path d="M35.6419 40.9382L40.8305 43.905L45.905 40.9343L44.9095 40.3257L40.7807 42.68L36.7174 40.2969L35.6419 40.9382Z" fill="#4E5671"/>
<path d="M35.6328 48.0968L40.8213 51.0623L45.8945 48.0929L44.9003 47.4843L40.7702 49.8386L36.7069 47.4554L35.6328 48.0968Z" fill="#4E5671"/>
<path d="M45.8683 39.7014L47.088 40.3677L52.1612 37.397L51.0713 36.6887L46.9988 39.0653L45.8643 38.4016L45.8683 39.7014Z" fill="#4E5671"/>
<path d="M45.8683 46.8771L47.088 47.5433L52.1612 44.5739L51.0713 43.8644L46.9988 46.2409L45.8643 45.5773L45.8683 46.8771Z" fill="#4E5671"/>
<path d="M52.1153 36.0172L53.3351 36.6835L58.4082 33.7141L57.3196 33.0059L53.2459 35.3811L52.1114 34.7175L52.1153 36.0172Z" fill="#4E5671"/>
<path d="M52.1153 43.303L53.3351 43.9693L58.4082 40.9999L57.3196 40.2916L53.2459 42.6669L52.1114 42.0032L52.1153 43.303Z" fill="#4E5671"/>
<path d="M45.9352 54.2206L40.8095 57.0916L45.9352 54.2206Z" stroke="black" stroke-width="0.4" stroke-linecap="round" stroke-linejoin="round"/>
<path d="M45.9352 48.1073V54.2205" stroke="black" stroke-width="0.4" stroke-linecap="round" stroke-linejoin="round"/>
<path d="M40.8095 51.1331L45.9352 48.1073" stroke="black" stroke-width="0.4" stroke-linecap="round" stroke-linejoin="round"/>
<path d="M46.9766 47.4987L52.0864 44.4834" stroke="black" stroke-width="0.4" stroke-linecap="round" stroke-linejoin="round"/>
<path d="M53.2406 49.8491L58.3466 46.8312" stroke="black" stroke-width="0.4" stroke-linecap="round" stroke-linejoin="round"/>
<path d="M53.2406 43.8814L58.3203 40.8857" stroke="black" stroke-width="0.4" stroke-linecap="round" stroke-linejoin="round"/>
<path d="M53.2406 42.7312L58.2967 39.7487" stroke="black" stroke-width="0.4" stroke-linecap="round" stroke-linejoin="round"/>
<path d="M46.9975 53.4572L52.1127 50.4261" stroke="black" stroke-width="0.4" stroke-linecap="round" stroke-linejoin="round"/>
<path d="M47.0264 46.2973L52.1874 43.2623" stroke="black" stroke-width="0.4" stroke-linecap="round" stroke-linejoin="round"/>
<path d="M40.7938 43.9522L45.926 40.9225" stroke="black" stroke-width="0.4" stroke-linecap="round" stroke-linejoin="round"/>
<path d="M47.0185 40.3611L52.152 37.3301" stroke="black" stroke-width="0.4" stroke-linecap="round" stroke-linejoin="round"/>
<path d="M53.2406 36.6704L58.2718 33.701" stroke="black" stroke-width="0.4" stroke-linecap="round" stroke-linejoin="round"/>
<path d="M53.2787 35.4691L58.3689 32.4393" stroke="black" stroke-width="0.4" stroke-linecap="round" stroke-linejoin="round"/>
<path d="M53.2577 29.5486L58.357 26.5386" stroke="black" stroke-width="0.4" stroke-linecap="round" stroke-linejoin="round"/>
<path d="M46.9988 39.0654L52.1756 36.0448" stroke="black" stroke-width="0.4" stroke-linecap="round" stroke-linejoin="round"/>
<path d="M46.9857 33.2014L52.169 30.1415" stroke="black" stroke-width="0.4" stroke-linecap="round" stroke-linejoin="round"/>
<path d="M40.7807 42.6813L45.8683 39.7014" stroke="black" stroke-width="0.4" stroke-linecap="round" stroke-linejoin="round"/>
<path d="M40.7807 36.7846L45.8565 33.7876" stroke="black" stroke-width="0.4" stroke-linecap="round" stroke-linejoin="round"/>
<path d="M35.6656 33.7876L40.7322 30.7762" stroke="black" stroke-width="0.4" stroke-linecap="round" stroke-linejoin="round"/>
<path d="M35.6432 40.9304L36.7174 40.2969" stroke="black" stroke-width="0.4" stroke-linecap="round" stroke-linejoin="round"/>
<path d="M35.6577 48.1322L36.7699 47.4751" stroke="black" stroke-width="0.4" stroke-linecap="round" stroke-linejoin="round"/>
<path d="M34.3107 53.4113L35.6629 52.6125" stroke="black" stroke-width="0.4" stroke-linecap="round" stroke-linejoin="round"/>
<path d="M21.3812 43.7909L24.689 41.8406" stroke="black" stroke-width="0.4" stroke-linecap="round" stroke-linejoin="round"/>
<path d="M21.3812 39.9966L24.689 38.0437" stroke="black" stroke-width="0.4" stroke-linecap="round" stroke-linejoin="round"/>
<path d="M19.7523 32.7056L16.674 34.5234" stroke="black" stroke-width="0.4" stroke-linecap="round" stroke-linejoin="round"/>
<path d="M16.6937 31.007L19.747 29.2036" stroke="black" stroke-width="0.4" stroke-linecap="round" stroke-linejoin="round"/>
<path d="M13.6338 29.2115L16.6871 27.4081" stroke="black" stroke-width="0.4" stroke-linecap="round" stroke-linejoin="round"/>
<path d="M20.9996 25.8474L24.1146 24.0085" stroke="black" stroke-width="0.4" stroke-linecap="round" stroke-linejoin="round"/>
<path d="M25.2884 24.6971L28.3693 22.8766" stroke="black" stroke-width="0.4" stroke-linecap="round" stroke-linejoin="round"/>
<path d="M28.608 24.6144L31.9433 22.6458" stroke="black" stroke-width="0.4" stroke-linecap="round" stroke-linejoin="round"/>
<path d="M31.9289 26.5635L35.2642 24.5948" stroke="black" stroke-width="0.4" stroke-linecap="round" stroke-linejoin="round"/>
<path d="M37.5201 24.6171L38.5681 23.9718" stroke="black" stroke-width="0.4" stroke-linecap="round" stroke-linejoin="round"/>
<path d="M37.5254 20.4621L41.1912 18.298" stroke="black" stroke-width="0.4" stroke-linecap="round" stroke-linejoin="round"/>
<path d="M33.8831 18.3255L37.5476 16.1614" stroke="black" stroke-width="0.4" stroke-linecap="round" stroke-linejoin="round"/>
<path d="M31.9105 30.4929L35.2799 28.498" stroke="black" stroke-width="0.4" stroke-linecap="round" stroke-linejoin="round"/>
<path d="M32.4417 31.5395L35.8426 29.5328" stroke="black" stroke-width="0.4" stroke-linecap="round" stroke-linejoin="round"/>
<path d="M24.1368 27.6875L27.244 25.8434" stroke="black" stroke-width="0.4" stroke-linecap="round" stroke-linejoin="round"/>
<path d="M24.1368 31.2903L27.244 29.4685" stroke="black" stroke-width="0.4" stroke-linecap="round" stroke-linejoin="round"/>
<path d="M28.3365 29.5905L29.3477 28.9924" stroke="black" stroke-width="0.4" stroke-linecap="round" stroke-linejoin="round"/>
<path d="M24.4241 35.6264L25.792 34.8185" stroke="black" stroke-width="0.4" stroke-linecap="round" stroke-linejoin="round"/>
<path d="M28.2355 42.3153L29.2664 41.7068" stroke="black" stroke-width="0.4" stroke-linecap="round" stroke-linejoin="round"/>
<path d="M18.0367 38.0331L21.3485 36.0841" stroke="black" stroke-width="0.4" stroke-linecap="round" stroke-linejoin="round"/>
<path d="M34.3107 47.4161L35.638 46.6318" stroke="black" stroke-width="0.4" stroke-linecap="round" stroke-linejoin="round"/>
<path d="M32.0089 43.3162L35.5895 41.2019" stroke="black" stroke-width="0.4" stroke-linecap="round" stroke-linejoin="round"/>
<path d="M32.0089 37.3446L35.6669 35.1844" stroke="black" stroke-width="0.4" stroke-linecap="round" stroke-linejoin="round"/>
<path d="M26.8531 34.3108L31.9931 31.2759" stroke="black" stroke-width="0.4" stroke-linecap="round" stroke-linejoin="round"/>
<path d="M29.1615 44.3943L31.4961 43.0145" stroke="black" stroke-width="0.4" stroke-linecap="round" stroke-linejoin="round"/>
<path d="M41.843 30.1833L47.0264 27.1234" stroke="black" stroke-width="0.4" stroke-linecap="round" stroke-linejoin="round"/>
<path d="M40.9604 29.6456L46.0545 26.6382" stroke="black" stroke-width="0.4" stroke-linecap="round" stroke-linejoin="round"/>
<path d="M35.9056 26.6788L40.9997 23.6714" stroke="black" stroke-width="0.4" stroke-linecap="round" stroke-linejoin="round"/>
<path d="M38.5838 20.9644L43.6373 17.9806" stroke="black" stroke-width="0.4" stroke-linecap="round" stroke-linejoin="round"/>
<path d="M43.7081 23.9717L48.7616 20.9879" stroke="black" stroke-width="0.4" stroke-linecap="round" stroke-linejoin="round"/>
<path d="M48.0901 26.5162L53.1921 23.5035" stroke="black" stroke-width="0.4" stroke-linecap="round" stroke-linejoin="round"/>
<path d="M40.7938 49.836L45.9548 46.8718" stroke="black" stroke-width="0.4" stroke-linecap="round" stroke-linejoin="round"/>
<path d="M40.7938 57.0915V51.1331" stroke="black" stroke-width="0.4" stroke-linecap="round" stroke-linejoin="round"/>
<path d="M35.6669 54.0736L40.8095 57.0915" stroke="black" stroke-width="0.4" stroke-linecap="round" stroke-linejoin="round"/>
<path d="M40.7938 49.8359V43.9535" stroke="black" stroke-width="0.4" stroke-linecap="round" stroke-linejoin="round"/>
<path d="M40.7938 42.6223V36.7399" stroke="black" stroke-width="0.4" stroke-linecap="round" stroke-linejoin="round"/>
<path d="M35.6577 48.1322L40.8095 51.154" stroke="black" stroke-width="0.4" stroke-linecap="round" stroke-linejoin="round"/>
<path d="M40.7938 49.836L35.6446 46.8141" stroke="black" stroke-width="0.4" stroke-linecap="round" stroke-linejoin="round"/>
<path d="M35.6432 40.9304L40.7938 43.9536" stroke="black" stroke-width="0.4" stroke-linecap="round" stroke-linejoin="round"/>
<path d="M35.68 39.687L40.7807 42.6813" stroke="black" stroke-width="0.4" stroke-linecap="round" stroke-linejoin="round"/>
<path d="M35.6656 33.7837L40.7807 36.7846" stroke="black" stroke-width="0.4" stroke-linecap="round" stroke-linejoin="round"/>
<path d="M40.7321 30.7762L45.8617 33.7876" stroke="black" stroke-width="0.4" stroke-linecap="round" stroke-linejoin="round"/>
<path d="M41.843 30.1833L46.9857 33.2013" stroke="black" stroke-width="0.4" stroke-linecap="round" stroke-linejoin="round"/>
<path d="M47.0264 27.1234L52.169 30.1413" stroke="black" stroke-width="0.4" stroke-linecap="round" stroke-linejoin="round"/>
<path d="M48.0901 26.5162L53.2576 29.5486" stroke="black" stroke-width="0.4" stroke-linecap="round" stroke-linejoin="round"/>
<path d="M53.1921 23.5035L58.357 26.5346" stroke="black" stroke-width="0.4" stroke-linecap="round" stroke-linejoin="round"/>
<path d="M26.8531 34.3109L32.0089 37.3367" stroke="black" stroke-width="0.4" stroke-linecap="round" stroke-linejoin="round"/>
<path d="M26.8531 40.2904L32.0089 43.3162" stroke="black" stroke-width="0.4" stroke-linecap="round" stroke-linejoin="round"/>
<path d="M31.9932 31.2759L35.9672 33.6092" stroke="black" stroke-width="0.4" stroke-linecap="round" stroke-linejoin="round"/>
<path d="M35.9056 26.6788L40.9604 29.6456" stroke="black" stroke-width="0.4" stroke-linecap="round" stroke-linejoin="round"/>
<path d="M40.9997 23.6714L46.0545 26.6382" stroke="black" stroke-width="0.4" stroke-linecap="round" stroke-linejoin="round"/>
<path d="M38.5838 20.9644L43.7081 23.9718" stroke="black" stroke-width="0.4" stroke-linecap="round" stroke-linejoin="round"/>
<path d="M43.6373 17.9805L48.7616 20.9879" stroke="black" stroke-width="0.4" stroke-linecap="round" stroke-linejoin="round"/>
<path d="M29.1615 44.3943L34.3107 47.4161" stroke="black" stroke-width="0.4" stroke-linecap="round" stroke-linejoin="round"/>
<path d="M29.1549 50.3855L34.3107 53.4113" stroke="black" stroke-width="0.4" stroke-linecap="round" stroke-linejoin="round"/>
<path d="M34.7553 41.7291L35.6341 42.2446" stroke="black" stroke-width="0.4" stroke-linecap="round" stroke-linejoin="round"/>
<path d="M28.608 24.6144L31.9289 26.5634" stroke="black" stroke-width="0.4" stroke-linecap="round" stroke-linejoin="round"/>
<path d="M35.9121 32.636L36.762 33.137" stroke="black" stroke-width="0.4" stroke-linecap="round" stroke-linejoin="round"/>
<path d="M28.6093 28.5583L31.9105 30.4929" stroke="black" stroke-width="0.4" stroke-linecap="round" stroke-linejoin="round"/>
<path d="M31.9433 22.6458L35.2642 24.5947" stroke="black" stroke-width="0.4" stroke-linecap="round" stroke-linejoin="round"/>
<path d="M33.8831 18.3254L37.5254 20.462" stroke="black" stroke-width="0.4" stroke-linecap="round" stroke-linejoin="round"/>
<path d="M33.8857 22.4845L37.5201 24.6171" stroke="black" stroke-width="0.4" stroke-linecap="round" stroke-linejoin="round"/>
<path d="M37.5477 16.1614L41.1886 18.2992" stroke="black" stroke-width="0.4" stroke-linecap="round" stroke-linejoin="round"/>
<path d="M18.0367 38.0331L21.3812 39.9965" stroke="black" stroke-width="0.4" stroke-linecap="round" stroke-linejoin="round"/>
<path d="M21.3484 36.0841L24.689 38.0436" stroke="black" stroke-width="0.4" stroke-linecap="round" stroke-linejoin="round"/>
<path d="M18.0197 41.8184L21.3812 43.791" stroke="black" stroke-width="0.4" stroke-linecap="round" stroke-linejoin="round"/>
<path d="M24.689 40.234L28.2355 42.3155" stroke="black" stroke-width="0.4" stroke-linecap="round" stroke-linejoin="round"/>
<path d="M22.5144 32.8944L26.8531 35.4402" stroke="black" stroke-width="0.4" stroke-linecap="round" stroke-linejoin="round"/>
<path d="M21.0009 29.4463L24.1368 31.2864" stroke="black" stroke-width="0.4" stroke-linecap="round" stroke-linejoin="round"/>
<path d="M13.6312 32.7371L16.674 34.5234" stroke="black" stroke-width="0.4" stroke-linecap="round" stroke-linejoin="round"/>
<path d="M13.6338 29.2115L16.6937 31.0071" stroke="black" stroke-width="0.4" stroke-linecap="round" stroke-linejoin="round"/>
<path d="M16.6871 27.4081L19.747 29.2036" stroke="black" stroke-width="0.4" stroke-linecap="round" stroke-linejoin="round"/>
<path d="M20.9996 25.8473L24.1368 27.6874" stroke="black" stroke-width="0.4" stroke-linecap="round" stroke-linejoin="round"/>
<path d="M24.1146 24.0085L27.244 25.8434" stroke="black" stroke-width="0.4" stroke-linecap="round" stroke-linejoin="round"/>
<path d="M28.3693 22.8766L29.8632 23.754" stroke="black" stroke-width="0.4" stroke-linecap="round" stroke-linejoin="round"/>
<path d="M27.3148 28.9912L28.3365 29.5906" stroke="black" stroke-width="0.4" stroke-linecap="round" stroke-linejoin="round"/>
<path d="M47.0185 40.3612L45.8683 39.6779" stroke="black" stroke-width="0.4" stroke-linecap="round" stroke-linejoin="round"/>
<path d="M45.8643 38.4017L46.9988 39.0654" stroke="black" stroke-width="0.4" stroke-linecap="round" stroke-linejoin="round"/>
<path d="M51.0713 36.6887L52.152 37.3301" stroke="black" stroke-width="0.4" stroke-linecap="round" stroke-linejoin="round"/>
<path d="M52.173 34.8525L53.2786 35.469" stroke="black" stroke-width="0.4" stroke-linecap="round" stroke-linejoin="round"/>
<path d="M52.1756 36.0448L53.2406 36.6704" stroke="black" stroke-width="0.4" stroke-linecap="round" stroke-linejoin="round"/>
<path d="M57.4376 40.3677L58.3203 40.8858" stroke="black" stroke-width="0.4" stroke-linecap="round" stroke-linejoin="round"/>
<path d="M52.1874 43.2623L53.2406 43.8814" stroke="black" stroke-width="0.4" stroke-linecap="round" stroke-linejoin="round"/>
<path d="M52.1127 49.1868L53.2406 49.8491" stroke="black" stroke-width="0.4" stroke-linecap="round" stroke-linejoin="round"/>
<path d="M51.1041 43.9023L52.093 44.4834" stroke="black" stroke-width="0.4" stroke-linecap="round" stroke-linejoin="round"/>
<path d="M52.2163 42.1305L53.2406 42.7312" stroke="black" stroke-width="0.4" stroke-linecap="round" stroke-linejoin="round"/>
<path d="M46.9766 47.4988L45.9548 46.8718" stroke="black" stroke-width="0.4" stroke-linecap="round" stroke-linejoin="round"/>
<path d="M45.9351 48.1073L44.878 47.4908" stroke="black" stroke-width="0.4" stroke-linecap="round" stroke-linejoin="round"/>
<path d="M45.9785 45.7045L47.0264 46.2973" stroke="black" stroke-width="0.4" stroke-linecap="round" stroke-linejoin="round"/>
<path d="M45.926 40.9226L44.9095 40.3258" stroke="black" stroke-width="0.4" stroke-linecap="round" stroke-linejoin="round"/>
<path d="M45.9352 52.8669L46.9975 53.4572" stroke="black" stroke-width="0.4" stroke-linecap="round" stroke-linejoin="round"/>
<path d="M57.3524 33.1606L58.2718 33.701" stroke="black" stroke-width="0.4" stroke-linecap="round" stroke-linejoin="round"/>
<path d="M24.4241 35.6263L26.8531 37.052" stroke="black" stroke-width="0.4" stroke-linecap="round" stroke-linejoin="round"/>
<path d="M34.3107 53.3654V47.4056" stroke="black" stroke-width="0.4" stroke-linecap="round" stroke-linejoin="round"/>
<path d="M29.1549 50.3855V44.427" stroke="black" stroke-width="0.4" stroke-linecap="round" stroke-linejoin="round"/>
<path d="M32.0299 43.2755V37.317" stroke="black" stroke-width="0.4" stroke-linecap="round" stroke-linejoin="round"/>
<path d="M26.8531 40.2969V34.3372" stroke="black" stroke-width="0.4" stroke-linecap="round" stroke-linejoin="round"/>
<path d="M35.6669 54.0736L35.6577 48.1322" stroke="black" stroke-width="0.4" stroke-linecap="round" stroke-linejoin="round"/>
<path d="M35.68 39.687L35.6656 33.7876" stroke="black" stroke-width="0.4" stroke-linecap="round" stroke-linejoin="round"/>
<path d="M45.8538 33.781L45.8683 39.7014L45.8538 33.781Z" stroke="black" stroke-width="0.4" stroke-linecap="round" stroke-linejoin="round"/>
<path d="M46.9857 33.2013L46.9988 39.0653" stroke="black" stroke-width="0.4" stroke-linecap="round" stroke-linejoin="round"/>
<path d="M52.1756 36.0449L52.1612 30.1415" stroke="black" stroke-width="0.4" stroke-linecap="round" stroke-linejoin="round"/>
<path d="M53.2787 35.4651L53.2642 29.5276" stroke="black" stroke-width="0.4" stroke-linecap="round" stroke-linejoin="round"/>
<path d="M58.3689 32.4394L58.3544 26.5347" stroke="black" stroke-width="0.4" stroke-linecap="round" stroke-linejoin="round"/>
<path d="M58.2967 39.7487L58.2823 33.7207" stroke="black" stroke-width="0.4" stroke-linecap="round" stroke-linejoin="round"/>
<path d="M53.2485 42.7272L53.234 36.6638" stroke="black" stroke-width="0.4" stroke-linecap="round" stroke-linejoin="round"/>
<path d="M47.0264 46.2974L47.012 40.3599" stroke="black" stroke-width="0.4" stroke-linecap="round" stroke-linejoin="round"/>
<path d="M52.1651 43.2676L52.152 37.3301" stroke="black" stroke-width="0.4" stroke-linecap="round" stroke-linejoin="round"/>
<path d="M45.9548 46.8718L45.9417 40.9343" stroke="black" stroke-width="0.4" stroke-linecap="round" stroke-linejoin="round"/>
<path d="M35.6446 46.8141L35.6315 40.9304" stroke="black" stroke-width="0.4" stroke-linecap="round" stroke-linejoin="round"/>
<path d="M46.9975 53.4572L46.9831 47.483" stroke="black" stroke-width="0.4" stroke-linecap="round" stroke-linejoin="round"/>
<path d="M52.1127 50.4261L52.0982 44.5044" stroke="black" stroke-width="0.4" stroke-linecap="round" stroke-linejoin="round"/>
<path d="M53.2485 49.8019L53.234 43.8644" stroke="black" stroke-width="0.4" stroke-linecap="round" stroke-linejoin="round"/>
<path d="M58.3466 46.8312L58.3334 40.8937" stroke="black" stroke-width="0.4" stroke-linecap="round" stroke-linejoin="round"/>
<path d="M41.843 31.4071L41.8391 30.1833" stroke="black" stroke-width="0.4" stroke-linecap="round" stroke-linejoin="round"/>
<path d="M48.0914 27.7321L48.0901 26.5162" stroke="black" stroke-width="0.4" stroke-linecap="round" stroke-linejoin="round"/>
<path d="M35.9121 32.6361L35.899 26.6986" stroke="black" stroke-width="0.4" stroke-linecap="round" stroke-linejoin="round"/>
<path d="M40.9669 30.8995L40.9643 29.6666" stroke="black" stroke-width="0.4" stroke-linecap="round" stroke-linejoin="round"/>
<path d="M43.7094 25.2034L43.7068 23.9718" stroke="black" stroke-width="0.4" stroke-linecap="round" stroke-linejoin="round"/>
<path d="M46.0637 27.6914L46.0611 26.6382" stroke="black" stroke-width="0.4" stroke-linecap="round" stroke-linejoin="round"/>
<path d="M48.7616 26.1135V20.9879" stroke="black" stroke-width="0.4" stroke-linecap="round" stroke-linejoin="round"/>
<path d="M38.593 25.0499L38.5838 20.9644" stroke="black" stroke-width="0.4" stroke-linecap="round" stroke-linejoin="round"/>
<path d="M37.5201 24.6171V20.4922" stroke="black" stroke-width="0.4" stroke-linecap="round" stroke-linejoin="round"/>
<path d="M41.2004 19.38V18.3124" stroke="black" stroke-width="0.4" stroke-linecap="round" stroke-linejoin="round"/>
<path d="M33.8857 22.4844L33.8831 18.3254" stroke="black" stroke-width="0.4" stroke-linecap="round" stroke-linejoin="round"/>
<path d="M35.28 28.498L35.2773 24.6027" stroke="black" stroke-width="0.4" stroke-linecap="round" stroke-linejoin="round"/>
<path d="M31.9105 30.4929L31.9145 26.5503" stroke="black" stroke-width="0.4" stroke-linecap="round" stroke-linejoin="round"/>
<path d="M28.6093 28.5583L28.608 24.6157" stroke="black" stroke-width="0.4" stroke-linecap="round" stroke-linejoin="round"/>
<path d="M27.244 29.4686L27.2426 25.8696" stroke="black" stroke-width="0.4" stroke-linecap="round" stroke-linejoin="round"/>
<path d="M24.1368 31.2903L24.1355 27.6914" stroke="black" stroke-width="0.4" stroke-linecap="round" stroke-linejoin="round"/>
<path d="M28.3404 33.3744L28.3391 29.5984" stroke="black" stroke-width="0.4" stroke-linecap="round" stroke-linejoin="round"/>
<path d="M34.1664 30.4824V29.1879" stroke="black" stroke-width="0.4" stroke-linecap="round" stroke-linejoin="round"/>
<path d="M24.3887 37.8258L24.3874 35.6473" stroke="black" stroke-width="0.4" stroke-linecap="round" stroke-linejoin="round"/>
<path d="M22.5144 32.8943L22.5131 30.3459" stroke="black" stroke-width="0.4" stroke-linecap="round" stroke-linejoin="round"/>
<path d="M21.0009 29.4463L20.9996 25.8696" stroke="black" stroke-width="0.4" stroke-linecap="round" stroke-linejoin="round"/>
<path d="M19.7523 32.7056V29.2168" stroke="black" stroke-width="0.4" stroke-linecap="round" stroke-linejoin="round"/>
<path d="M16.674 34.5038V31.0137" stroke="black" stroke-width="0.4" stroke-linecap="round" stroke-linejoin="round"/>
<path d="M13.6312 32.716V29.226" stroke="black" stroke-width="0.4" stroke-linecap="round" stroke-linejoin="round"/>
<path d="M18.0197 41.8183V38.0554" stroke="black" stroke-width="0.4" stroke-linecap="round" stroke-linejoin="round"/>
<path d="M21.3812 43.766V40.0018" stroke="black" stroke-width="0.4" stroke-linecap="round" stroke-linejoin="round"/>
<path d="M24.689 41.8406V38.0764" stroke="black" stroke-width="0.4" stroke-linecap="round" stroke-linejoin="round"/>
<path d="M28.2565 42.259V41.0969" stroke="black" stroke-width="0.4" stroke-linecap="round" stroke-linejoin="round"/>
</g>
<path d="M93.152 41.6266H95.808L91.328 30.6346H88.688L84.208 41.6266H86.848L87.552 39.8986H92.448L93.152 41.6266ZM88.368 37.8986L90 33.8826L91.632 37.8986H88.368Z" fill="#444444"/>
<path d="M103.184 33.3546V34.4746C102.624 33.6906 101.568 33.1626 100.448 33.1626C98.3676 33.1626 96.7836 34.7786 96.7836 37.0826C96.7836 39.3866 98.3676 41.0186 100.448 41.0186C101.536 41.0186 102.528 40.5386 103.184 39.7386V40.6506C103.184 41.7226 102.224 42.4106 100.72 42.4106C99.7596 42.4106 98.7996 42.1066 98.2556 41.6266L97.4396 43.2746C98.2556 43.9146 99.6316 44.3786 101.088 44.3786C103.696 44.3786 105.536 42.8746 105.536 40.7466V33.3546H103.184ZM101.184 39.0506C100.016 39.0506 99.1836 38.2346 99.1836 37.0826C99.1836 35.9306 100.016 35.1306 101.184 35.1306C102.352 35.1306 103.184 35.9306 103.184 37.0826C103.184 38.2346 102.352 39.0506 101.184 39.0506Z" fill="#444444"/>
<path d="M110.086 34.8906V33.3546H107.75V41.6266H110.086V37.6746C110.086 36.1226 111.19 35.1306 112.918 35.1306V33.1626C111.654 33.1626 110.63 33.8186 110.086 34.8906Z" fill="#444444"/>
<path d="M115.594 32.2186C116.282 32.2186 116.842 31.6426 116.842 30.9386C116.842 30.2826 116.282 29.6906 115.594 29.6906C114.874 29.6906 114.314 30.2826 114.314 30.9386C114.314 31.6426 114.874 32.2186 115.594 32.2186ZM114.41 41.6266H116.746V33.3546H114.41V41.6266Z" fill="#444444"/>
<path d="M124.385 41.8186C125.905 41.8186 127.313 41.1626 128.337 40.1386L127.633 39.4186C126.801 40.2986 125.633 40.8586 124.385 40.8586C121.889 40.8586 119.793 38.6986 119.793 36.1226C119.793 33.5626 121.889 31.4026 124.385 31.4026C125.633 31.4026 126.801 31.9626 127.633 32.8266L128.337 32.1226C127.313 31.0826 125.905 30.4426 124.385 30.4426C121.345 30.4426 118.753 33.0346 118.753 36.1226C118.753 39.2106 121.345 41.8186 124.385 41.8186Z" fill="#444444"/>
<path d="M133.9 33.1626C132.684 33.1626 131.628 33.8026 131.18 34.7146V30.4426H130.188V41.6266H131.18V36.3626C131.18 35.0826 132.316 34.0746 133.772 34.0746C135.084 34.0746 136.012 35.0506 136.012 36.4426V41.6266H137.004V36.3146C137.004 34.4746 135.724 33.1626 133.9 33.1626Z" fill="#444444"/>
<path d="M142.91 33.1626C142.094 33.1626 141.07 33.3866 139.982 33.9626L140.382 34.7786C141.134 34.3626 141.998 34.0426 142.83 34.0426C144.686 34.0426 145.23 35.3706 145.23 36.5866V36.9226C144.35 36.6346 143.358 36.4266 142.462 36.4266C140.606 36.4266 139.182 37.5466 139.182 39.1786C139.182 40.7786 140.462 41.8186 142.19 41.8186C143.31 41.8186 144.622 41.2906 145.23 40.3146V41.6266H146.222V36.5866C146.222 34.5866 145.086 33.1626 142.91 33.1626ZM142.35 40.9226C141.118 40.9226 140.158 40.2346 140.158 39.1306C140.158 38.0586 141.23 37.2906 142.606 37.2906C143.534 37.2906 144.446 37.4666 145.23 37.7066V39.0346C144.91 40.3146 143.502 40.9226 142.35 40.9226Z" fill="#444444"/>
<path d="M149.316 31.7385C149.7 31.7385 150.004 31.4345 150.004 31.0505C150.004 30.6825 149.7 30.3625 149.316 30.3625C148.932 30.3625 148.628 30.6825 148.628 31.0505C148.628 31.4345 148.932 31.7385 149.316 31.7385ZM148.82 41.6265H149.812V33.3545H148.82V41.6265Z" fill="#444444"/>
<path d="M156.115 33.1626C154.899 33.1626 153.843 33.8026 153.395 34.7146V33.3546H152.403V41.6266H153.395V36.3626C153.395 35.0826 154.531 34.0746 155.987 34.0746C157.299 34.0746 158.227 35.0506 158.227 36.4426V41.6266H159.219V36.3146C159.219 34.4746 157.939 33.1626 156.115 33.1626Z" fill="#444444"/>
<defs>
<clipPath id="clip0">
<rect width="45" height="41.1925" fill="white" transform="translate(13.5 16.0303)"/>
</clipPath>
</defs>
</svg>
