<svg width="131" height="33" viewBox="0 0 131 33" fill="none" xmlns="http://www.w3.org/2000/svg">
<path d="M51.152 22H53.808L49.328 11.008H46.688L42.208 22H44.848L45.552 20.272H50.448L51.152 22ZM46.368 18.272L48 14.256L49.632 18.272H46.368ZM61.1836 13.728V14.848C60.6236 14.064 59.5676 13.536 58.4476 13.536C56.3676 13.536 54.7836 15.152 54.7836 17.456C54.7836 19.76 56.3676 21.392 58.4476 21.392C59.5356 21.392 60.5276 20.912 61.1836 20.112V21.024C61.1836 22.096 60.2236 22.784 58.7196 22.784C57.7596 22.784 56.7996 22.48 56.2556 22L55.4396 23.648C56.2556 24.288 57.6316 24.752 59.0876 24.752C61.6956 24.752 63.5356 23.248 63.5356 21.12V13.728H61.1836ZM59.1836 19.424C58.0156 19.424 57.1836 18.608 57.1836 17.456C57.1836 16.304 58.0156 15.504 59.1836 15.504C60.3516 15.504 61.1836 16.304 61.1836 17.456C61.1836 18.608 60.3516 19.424 59.1836 19.424ZM68.0862 15.264V13.728H65.7502V22H68.0862V18.048C68.0862 16.496 69.1902 15.504 70.9183 15.504V13.536C69.6543 13.536 68.6302 14.192 68.0862 15.264ZM73.5939 12.592C74.2819 12.592 74.8419 12.016 74.8419 11.312C74.8419 10.656 74.2819 10.064 73.5939 10.064C72.8739 10.064 72.3139 10.656 72.3139 11.312C72.3139 12.016 72.8739 12.592 73.5939 12.592ZM72.4099 22H74.7459V13.728H72.4099V22ZM82.3852 22.192C83.9052 22.192 85.3132 21.536 86.3372 20.512L85.6333 19.792C84.8012 20.672 83.6332 21.232 82.3852 21.232C79.8892 21.232 77.7932 19.072 77.7932 16.496C77.7932 13.936 79.8892 11.776 82.3852 11.776C83.6332 11.776 84.8012 12.336 85.6333 13.2L86.3372 12.496C85.3132 11.456 83.9052 10.816 82.3852 10.816C79.3452 10.816 76.7532 13.408 76.7532 16.496C76.7532 19.584 79.3452 22.192 82.3852 22.192ZM91.9002 13.536C90.6842 13.536 89.6282 14.176 89.1802 15.088V10.816H88.1882V22H89.1802V16.736C89.1802 15.456 90.3162 14.448 91.7722 14.448C93.0842 14.448 94.0122 15.424 94.0122 16.816V22H95.0042V16.688C95.0042 14.848 93.7242 13.536 91.9002 13.536ZM100.91 13.536C100.094 13.536 99.0699 13.76 97.9819 14.336L98.3819 15.152C99.1339 14.736 99.9979 14.416 100.83 14.416C102.686 14.416 103.23 15.744 103.23 16.96V17.296C102.35 17.008 101.358 16.8 100.462 16.8C98.6059 16.8 97.1819 17.92 97.1819 19.552C97.1819 21.152 98.4619 22.192 100.19 22.192C101.31 22.192 102.622 21.664 103.23 20.688V22H104.222V16.96C104.222 14.96 103.086 13.536 100.91 13.536ZM100.35 21.296C99.1179 21.296 98.1579 20.608 98.1579 19.504C98.1579 18.432 99.2299 17.664 100.606 17.664C101.534 17.664 102.446 17.84 103.23 18.08V19.408C102.91 20.688 101.502 21.296 100.35 21.296ZM107.316 12.112C107.7 12.112 108.004 11.808 108.004 11.424C108.004 11.056 107.7 10.736 107.316 10.736C106.932 10.736 106.628 11.056 106.628 11.424C106.628 11.808 106.932 12.112 107.316 12.112ZM106.82 22H107.812V13.728H106.82V22ZM114.115 13.536C112.899 13.536 111.843 14.176 111.395 15.088V13.728H110.403V22H111.395V16.736C111.395 15.456 112.531 14.448 113.987 14.448C115.299 14.448 116.227 15.424 116.227 16.816V22H117.219V16.688C117.219 14.848 115.939 13.536 114.115 13.536Z" fill="#737373"/>
<path d="M10.1731 28L15.3333 24.7143L19.4615 12.2157L23 5H0V28H10.1731Z" fill="#3A828C"/>
<path d="M12.0239 27.6466C13.5513 29.214 16.2415 31.5767 16.2415 31.5767C16.2415 31.5767 16.2415 28.5398 16.0406 27.2893C15.8398 26.0389 15.639 24.7884 15.0364 23.7165C14.4339 22.6447 13.4298 21.3942 11.0197 19.9651C8.60972 18.5359 5.59719 18 5.59719 18C5.59719 18 7.19037 21.4273 8.40889 23.1806C9.6392 24.9509 10.4914 26.074 12.0239 27.6466Z" fill="#60BCC4"/>
<path d="M16.2415 31.5767C16.2415 31.5767 13.5513 29.214 12.0239 27.6466C10.4914 26.074 9.6392 24.9509 8.40889 23.1806C7.19037 21.4273 5.59719 18 5.59719 18C5.59719 18 4.79384 22.466 7.80638 26.9321C10.8189 31.3981 16.2415 31.5767 16.2415 31.5767Z" fill="#DCD3CA"/>
<path d="M19.6393 14.9863C17.6746 19.0329 16.0442 25.844 16.0442 25.844C16.0442 25.844 23.679 20.2582 26.0306 14.9863C28.8216 8.72925 27.8281 1 27.8281 1C27.8281 1 23.0347 7.99313 19.6393 14.9863Z" fill="#60BCC4"/>
<path d="M16.0443 25.8441C16.0443 25.8441 17.6746 19.033 19.6394 14.9863C23.0347 7.9932 27.8282 1.00006 27.8282 1.00006C27.8282 1.00006 24.5 0.36838 17.3184 10.788C11.6965 18.9447 16.0443 25.8441 16.0443 25.8441Z" fill="#D3CEC3"/>
</svg>
