<svg width="32" height="33" viewBox="0 0 32 33" fill="none" xmlns="http://www.w3.org/2000/svg">
<path d="M6.72268 25.244H16.2017L21.042 26.6557L29.7143 20.202L22.0504 6.89104L5.10923 11.5297L5.5126 17.1768L2.28571 20.807L6.72268 25.244Z" fill="#004455"/>
<path d="M6.72268 25.244L6.36913 25.5975L6.51557 25.744H6.72268V25.244ZM16.2017 25.244L16.3417 24.764L16.2731 24.744H16.2017V25.244ZM22.0504 6.89104L22.4837 6.64155L22.291 6.30677L21.9184 6.40879L22.0504 6.89104ZM5.10923 11.5297L4.97719 11.0474L4.58126 11.1559L4.61051 11.5653L5.10923 11.5297ZM5.5126 17.1768L5.8863 17.5089L6.02634 17.3514L6.01133 17.1411L5.5126 17.1768ZM2.28571 20.807L1.912 20.4748L1.59878 20.8272L1.93215 21.1606L2.28571 20.807ZM29.7143 20.202L30.0128 20.6031L30.3694 20.3377L30.1476 19.9525L29.7143 20.202ZM21.042 26.6557L20.902 27.1357L21.1409 27.2054L21.3405 27.0569L21.042 26.6557ZM6.72268 25.744H16.2017V24.744H6.72268V25.744ZM21.9184 6.40879L4.97719 11.0474L5.24128 12.0119L22.1825 7.37329L21.9184 6.40879ZM4.61051 11.5653L5.01387 17.2124L6.01133 17.1411L5.60796 11.4941L4.61051 11.5653ZM5.13889 16.8446L1.912 20.4748L2.65941 21.1392L5.8863 17.5089L5.13889 16.8446ZM1.93215 21.1606L6.36913 25.5975L7.07623 24.8904L2.63926 20.4535L1.93215 21.1606ZM30.1476 19.9525L22.4837 6.64155L21.6171 7.14052L29.281 20.4514L30.1476 19.9525ZM16.0617 25.724L20.902 27.1357L21.182 26.1757L16.3417 24.764L16.0617 25.724ZM21.3405 27.0569L30.0128 20.6031L29.4158 19.8008L20.7435 26.2546L21.3405 27.0569Z" fill="#17C1FF"/>
<path d="M15.7897 20.3144H17.5064V16.3188L19.4941 19.9128L21.4819 16.3188V20.3144H23.1986V13.4174H21.4819L19.4941 17.0115L17.5064 13.4174H15.7897V20.3144Z" fill="#20A2B4"/>
<mask id="mask0" mask-type="alpha" maskUnits="userSpaceOnUse" x="15" y="13" width="9" height="8">
<path d="M15.7897 20.3144H17.5064V16.3187L19.4941 19.9128L21.4819 16.3187V20.3144H23.1986V13.4174H21.4819L19.4941 17.0114L17.5064 13.4174H15.7897V20.3144Z" fill="#4081A7"/>
</mask>
<g mask="url(#mask0)">
<path d="M17.5072 13.3946V16.3389L18.0064 20.7757L15.4275 20.6509L15.0809 12.637L17.5072 13.3946Z" fill="#39EBFF"/>
<path d="M19.4748 20.2285L21.4822 16.3214L23.2903 13.2663L21.4896 13.334L18.5421 18.764L19.4748 20.2285Z" fill="#39EBFF"/>
</g>
<path d="M13.1192 20.3143H15.0468L12.3161 13.4174H10.3886L7.6579 20.3143H9.58542L9.98699 19.3104H12.7177L13.1192 20.3143ZM10.5191 17.9651L11.3523 15.8469L12.1856 17.9651H10.5191Z" fill="#39EBFF"/>
<mask id="mask1" mask-type="alpha" maskUnits="userSpaceOnUse" x="7" y="13" width="9" height="8">
<path d="M13.1117 20.3143H15.0464L12.316 13.4174H10.3811L7.65039 20.3143H9.57791L9.9839 19.3104H12.7102L13.1117 20.3143ZM10.5116 17.9651L11.3448 15.8469L12.1781 17.9651H10.5116Z" fill="#39EBFF"/>
</mask>
<g mask="url(#mask1)">
<path d="M12.3499 13.3325L15.4846 20.7846L12.8957 20.3887L9.98572 19.3125L10.5214 17.9643L11.0177 17.0377L11.3511 15.8513L12.3499 13.3325Z" fill="#4081A7"/>
</g>
</svg>
