<svg width="32" height="33" viewBox="0 0 32 33" fill="none" xmlns="http://www.w3.org/2000/svg">
<path d="M2.28571 19.7847L9.44099 21.4884L14.2112 26.2586L29.2032 19.7847L28.1143 10.4147L17.2777 7.34818L6.88553 10.4147L2.28571 19.7847Z" fill="#004455" stroke="#17C1FF"/>
<path d="M14.8116 18.4879H16.7271L14.0134 11.6338H12.0979L9.38416 18.4879H11.2997L11.6988 17.4902H14.4125L14.8116 18.4879ZM12.2276 16.1533L13.0556 14.0482L13.8837 16.1533H12.2276Z" fill="#39EBFF"/>
<mask id="mask0" mask-type="alpha" maskUnits="userSpaceOnUse" x="9" y="11" width="8" height="8">
<path d="M14.8107 18.4879H16.7268L14.0143 11.6338H12.1117L9.39801 18.4879H11.301L11.6987 17.4902H14.4143L14.8107 18.4879ZM12.2286 16.1533L13.0554 14.0482L13.884 16.1533H12.2286Z" fill="#73C9B5"/>
</mask>
<g mask="url(#mask0)">
<path d="M14.025 11.6071L16.7762 18.5368H14.7854L14.3761 17.531L11.6982 17.4928L12.2322 16.1446L12.2757 16.0991L13.0679 14.0214L14.025 11.6071Z" fill="#1FA5FF"/>
</g>
<mask id="mask1" mask-type="alpha" maskUnits="userSpaceOnUse" x="17" y="11" width="7" height="8">
<path d="M20.3313 18.722C22.0274 18.722 23.075 17.864 23.075 16.4872C23.075 15.2002 22.0873 14.7612 20.5508 14.432C19.5332 14.2125 19.204 14.0728 19.204 13.6538C19.204 13.3145 19.5132 13.0552 20.062 13.0552C20.7005 13.0552 21.3889 13.3046 22.0174 13.7835L22.8854 12.5663C22.1571 11.9577 21.2592 11.6285 20.1119 11.6285C18.5455 11.6285 17.4879 12.5064 17.4879 13.8234C17.4879 15.2002 18.5754 15.5993 20.042 15.9285C21.0397 16.168 21.359 16.2577 21.359 16.6668C21.359 17.0359 21.0297 17.2953 20.3912 17.2953C19.5531 17.2953 18.8049 16.9761 18.1364 16.4273L17.1786 17.5747C18.0067 18.323 19.1142 18.722 20.3313 18.722V18.722Z" fill="#39EBFF"/>
</mask>
<g mask="url(#mask1)">
<path d="M20.3313 18.722C22.0274 18.722 23.075 17.864 23.075 16.4872C23.075 15.2002 22.0873 14.7612 20.5508 14.432C19.5332 14.2125 19.204 14.0728 19.204 13.6538C19.204 13.3145 19.5132 13.0552 20.062 13.0552C20.7005 13.0552 21.3889 13.3046 22.0174 13.7835L22.8854 12.5663C22.1571 11.9577 21.2592 11.6285 20.1119 11.6285C18.5455 11.6285 17.4879 12.5064 17.4879 13.8234C17.4879 15.2002 18.5754 15.5993 20.042 15.9285C21.0397 16.168 21.359 16.2577 21.359 16.6668C21.359 17.0359 21.0297 17.2953 20.3912 17.2953C19.5531 17.2953 18.8049 16.9761 18.1364 16.4273L17.1786 17.5747C18.0067 18.323 19.1142 18.722 20.3313 18.722Z" fill="#39EBFF"/>
<path d="M17.8022 19.5788L22.9465 12.5638C23.8818 12.6158 23.6814 14.1227 23.6814 14.1227L22.8797 18.3316C22.8797 18.3316 17.869 19.5342 17.8022 19.5788Z" fill="#1FA5FF"/>
</g>
</svg>
