<svg width="32" height="33" viewBox="0 0 32 33" fill="none" xmlns="http://www.w3.org/2000/svg">
<path d="M4.99865 24.6482L9.99999 23.3625L20.5 27.4339L26.7143 21.2196L29.7143 7.50533L13.8571 10.291L5.71428 6.4339L2.28571 17.3625L4.99865 24.6482Z" fill="url(#paint0_linear)" stroke="#73C9B5"/>
<path d="M14.7147 19.8863H16.5387V15.641L18.6507 19.4597L20.7627 15.641V19.8863H22.5867V12.5583H20.7627L18.6507 16.377L16.5387 12.5583H14.7147V19.8863Z" fill="#4081A7"/>
<mask id="mask0" mask-type="alpha" maskUnits="userSpaceOnUse" x="14" y="12" width="9" height="8">
<path d="M14.7147 19.8863H16.5387V15.641L18.6507 19.4597L20.7627 15.641V19.8863H22.5867V12.5583H20.7627L18.6507 16.377L16.5387 12.5583H14.7147V19.8863Z" fill="#20A2B4"/>
</mask>
<g mask="url(#mask0)">
<path d="M16.5397 12.5303V15.6623L17.07 20.3764L14.33 20.2438L14.5248 12.3777L16.5397 12.5303Z" fill="#73C9B5"/>
<path d="M18.5313 20.3342L20.7643 15.641L22.7162 12.3328L20.7709 12.4696L18.6518 16.3732L16.7292 19.8655L18.5313 20.3342Z" fill="#73C9B5"/>
</g>
<path d="M9.97465 18.2543V12.5583H8.16132V19.8863H13.5053V18.2543H9.97465Z" fill="#4081A7"/>
<mask id="mask1" mask-type="alpha" maskUnits="userSpaceOnUse" x="8" y="12" width="6" height="8">
<path d="M9.97465 18.2543V12.5583H8.16132V19.8863H13.5053V18.2543H9.97465Z" fill="#20A2B4"/>
</mask>
<g mask="url(#mask1)">
<path d="M9.97762 12.2196C9.08873 12.1085 7.27762 11.8863 7.14429 11.8863C6.97762 14.5529 6.64429 19.9196 6.64429 20.0529C6.64429 20.1863 8.86651 20.0413 9.97762 20.0413V12.5529V12.2196Z" fill="#73C9B5"/>
</g>
<defs>
<linearGradient id="paint0_linear" x1="10.9078" y1="8.22362" x2="10.9078" y2="25.6531" gradientUnits="userSpaceOnUse">
<stop stop-color="#275864"/>
<stop offset="1" stop-color="#204D53"/>
</linearGradient>
</defs>
</svg>
